<svg width="27" height="27" viewBox="0 0 27 27" fill="none" xmlns="http://www.w3.org/2000/svg">
<path d="M14.9502 25.6464C21.4694 25.0304 26.245 19.3475 25.617 12.9533C24.9889 6.5591 19.1949 1.87498 12.6758 2.49101C6.15663 3.10705 1.38098 8.78996 2.00906 15.1841C2.63713 21.5783 8.43109 26.2625 14.9502 25.6464Z" fill="#C18D25"/>
<path d="M13.8324 24.4191C20.3816 24.4191 25.6909 19.2117 25.6909 12.7879C25.6909 6.3642 20.3816 1.15674 13.8324 1.15674C7.28311 1.15674 1.97388 6.3642 1.97388 12.7879C1.97388 19.2117 7.28311 24.4191 13.8324 24.4191Z" fill="url(#paint0_linear_759_3944)"/>
<path d="M13.8325 21.6515C18.8233 21.6515 22.8693 17.6831 22.8693 12.7879C22.8693 7.89268 18.8233 3.92432 13.8325 3.92432C8.84157 3.92432 4.79565 7.89268 4.79565 12.7879C4.79565 17.6831 8.84157 21.6515 13.8325 21.6515Z" fill="url(#paint1_linear_759_3944)"/>
<path d="M22.8704 12.6374C22.8155 12.6388 22.7829 12.2483 22.6475 11.5658C22.5086 10.8873 22.2496 9.90542 21.6453 8.82865C21.3433 8.29241 20.9576 7.73478 20.4728 7.19768C19.9836 6.66486 19.4017 6.14657 18.7161 5.70554C18.3746 5.48432 18.0109 5.27678 17.6223 5.10002C17.2352 4.92127 16.8291 4.75992 16.4022 4.63733C15.9763 4.5136 15.5351 4.41069 15.08 4.35053C14.6254 4.28981 14.1597 4.26102 13.688 4.26558C13.2163 4.2767 12.7518 4.32117 12.2993 4.39672C11.8464 4.47198 11.409 4.58943 10.9875 4.72742C10.5652 4.86397 10.1647 5.03901 9.78391 5.23059C9.40169 5.42046 9.04535 5.63969 8.71168 5.87232C8.04142 6.33587 7.47784 6.87354 7.00727 7.42233C6.54134 7.97568 6.17512 8.54557 5.89202 9.09179C5.32553 10.1882 5.10085 11.178 4.98546 11.8608C4.87385 12.5473 4.85466 12.9384 4.79973 12.939C4.75933 12.9404 4.68637 12.5493 4.71747 11.8329C4.75293 11.1216 4.91018 10.0711 5.44993 8.88539C5.71966 8.29526 6.08298 7.67491 6.55965 7.06968C7.0404 6.469 7.62811 5.87831 8.33644 5.36601C8.6893 5.10915 9.06802 4.86682 9.4761 4.65643C9.88273 4.44433 10.312 4.25075 10.766 4.09852C11.2192 3.94514 11.6906 3.81514 12.1789 3.73133C12.6669 3.64694 13.1683 3.59791 13.6767 3.58622C14.185 3.58109 14.6876 3.61359 15.1782 3.68144C15.6691 3.74872 16.1449 3.86304 16.6027 4.0013C17.0617 4.13843 17.4974 4.31746 17.911 4.51588C18.3257 4.71259 18.7129 4.94237 19.0742 5.18697C19.7996 5.67504 20.4074 6.24607 20.9088 6.83021C21.4061 7.41891 21.7906 8.027 22.0807 8.60772C22.6612 9.77457 22.8547 10.8194 22.9149 11.5293C22.9704 12.244 22.9111 12.6377 22.8704 12.6374Z" fill="#C18D25"/>
<path d="M14.1017 12.419C14.6208 12.1188 18.3769 8.89017 16.7586 7.29597C15.5352 6.09091 14.2874 7.94711 14.2874 7.94711C14.2874 7.94711 13.0117 6.32896 12.1008 6.70584C11.1899 7.08273 10.3473 9.48172 14.0429 12.4418H14.0438C14.0418 12.4426 14.04 12.4432 14.038 12.444C14.0293 12.4478 14.0284 12.4842 14.0334 12.543C13.5977 12.1889 9.15556 9.85376 8.20279 11.9115C7.48603 13.4598 9.69734 13.9487 9.69734 13.9487C9.69734 13.9487 8.60506 15.6909 9.28635 16.3936C9.96417 17.0926 12.5266 17.0202 14.0464 12.6502C14.1906 13.6348 15.3111 17.8304 17.38 17.2218C19.0405 16.7332 17.9619 14.7778 17.9619 14.7778C17.9619 14.7778 20.0183 14.4391 20.1098 13.4735C20.2014 12.5122 18.4598 10.6657 14.1017 12.419Z" fill="url(#paint2_linear_759_3944)"/>
<path d="M14.0545 11.3376C14.0545 11.3376 13.6981 17.8313 13.2747 18.6327L13.9467 18.6424C13.9467 18.6424 14.4132 14.7179 14.0498 11.4366" fill="url(#paint3_linear_759_3944)"/>
<path d="M25.6895 12.9561C25.6776 12.9558 25.6645 12.8281 25.6506 12.5855C25.645 12.4643 25.6372 12.3144 25.6174 12.1379C25.6006 11.9614 25.5866 11.7576 25.5509 11.5301C25.4977 11.0734 25.3875 10.5203 25.2169 9.89114C25.0431 9.2631 24.7905 8.56093 24.4222 7.82655C24.054 7.09303 23.5727 6.32586 22.955 5.58036C22.3316 4.84085 21.5802 4.11559 20.6838 3.48983C20.2374 3.17595 19.7598 2.88003 19.2474 2.62374C18.7367 2.36545 18.199 2.12969 17.6316 1.94552C17.0654 1.75965 16.4771 1.60171 15.8685 1.50136C15.2602 1.39987 14.6358 1.34114 14.0019 1.32803C13.368 1.32318 12.7416 1.36423 12.1307 1.44833C11.5191 1.53158 10.9262 1.6727 10.3548 1.84232C9.78187 2.01052 9.23747 2.23089 8.71923 2.47464C8.19925 2.71611 7.71327 2.99863 7.25752 3.29968C6.34312 3.89978 5.57055 4.60337 4.92559 5.32521C4.28614 6.05303 3.78243 6.80623 3.39295 7.52892C3.00318 8.25247 2.73026 8.94694 2.53813 9.56985C2.34921 10.1936 2.22277 10.7435 2.15592 11.1985C2.11348 11.4249 2.09343 11.6282 2.07134 11.8041C2.04663 11.98 2.03442 12.1293 2.02512 12.2505C2.00391 12.4925 1.98705 12.62 1.97513 12.6197C1.96321 12.6194 1.95653 12.4917 1.95537 12.2474C1.95333 12.1251 1.95449 11.974 1.96874 11.7955C1.98007 11.617 1.98966 11.4106 2.02222 11.1803C2.06901 10.7173 2.17743 10.1563 2.35182 9.51682C2.52941 8.87852 2.79129 8.16466 3.17496 7.41888C3.55863 6.67395 4.06175 5.89538 4.7073 5.1419C5.35808 4.39441 6.14344 3.66459 7.0779 3.04082C7.54353 2.72808 8.04113 2.43444 8.5742 2.183C9.10552 1.92927 9.66503 1.69978 10.2539 1.52445C10.8416 1.3477 11.4517 1.2006 12.081 1.11364C12.7099 1.02584 13.3546 0.983074 14.0071 0.988206C14.6594 1.0016 15.302 1.0629 15.9281 1.16838C16.5548 1.27329 17.1599 1.43722 17.7418 1.63079C18.3251 1.82265 18.8774 2.06782 19.4009 2.33637C19.9264 2.60293 20.415 2.91025 20.871 3.23611C21.7866 3.8861 22.5498 4.63787 23.1785 5.40333C23.8017 6.17477 24.2816 6.96702 24.6431 7.7225C25.0047 8.47883 25.2454 9.19981 25.4044 9.84296C25.5599 10.487 25.6517 11.0512 25.6851 11.5153C25.711 11.7465 25.7145 11.9532 25.7206 12.1319C25.7293 12.3104 25.7261 12.4618 25.7206 12.5841C25.7119 12.8284 25.7017 12.9561 25.6895 12.9561Z" fill="#FCE9B9"/>
<path d="M13.8807 12.3681C13.8664 12.3872 13.7653 12.3453 13.5953 12.2563C13.5072 12.2164 13.4049 12.1599 13.2816 12.1032C13.22 12.0741 13.1546 12.0433 13.0854 12.0108C13.0148 11.9803 12.9404 11.9484 12.8625 11.9151C12.7053 11.8506 12.532 11.7836 12.3431 11.7203C12.1542 11.6565 11.9496 11.5983 11.7327 11.5442C11.5144 11.4951 11.2851 11.4458 11.0439 11.415C10.8035 11.3791 10.5524 11.3609 10.2951 11.3512C10.0376 11.3443 9.78591 11.3512 9.54408 11.3708C9.30051 11.3885 9.07874 11.4202 8.89796 11.5008C8.71484 11.5812 8.56079 11.7058 8.44744 11.8455C8.3335 11.9858 8.26025 12.1403 8.22189 12.2888C8.18323 12.4379 8.17771 12.5822 8.18933 12.707C8.20038 12.8325 8.22683 12.9402 8.25502 13.0266C8.31286 13.1994 8.36838 13.2915 8.34745 13.3071C8.33117 13.3205 8.23671 13.255 8.13208 13.0808C8.08092 12.9938 8.03035 12.8789 7.99808 12.737C7.96553 12.5958 7.95216 12.4265 7.98181 12.2418C8.01145 12.057 8.08702 11.8589 8.21695 11.6776C8.34629 11.4966 8.52969 11.3306 8.76164 11.2177C8.99678 11.1029 9.2604 11.0627 9.5124 11.0393C9.7676 11.0136 10.0336 11.0042 10.3056 11.0113C10.5771 11.0216 10.8422 11.0433 11.0947 11.0857C11.3482 11.1228 11.5883 11.1813 11.815 11.2417C12.0402 11.3073 12.2516 11.3785 12.4443 11.4569C12.6373 11.5348 12.8122 11.6177 12.9686 11.699C13.0453 11.7414 13.1189 11.7819 13.1883 11.8204C13.2552 11.8623 13.3183 11.9019 13.3778 11.939C13.4956 12.0137 13.59 12.0881 13.6685 12.1463C13.8196 12.2708 13.8946 12.3492 13.8807 12.3681Z" fill="#FCE9B9"/>
<path d="M14.2235 7.92453C14.2032 7.93764 14.1549 7.906 14.0831 7.84214C14.0102 7.77913 13.9122 7.68506 13.7861 7.57701C13.5355 7.36091 13.1644 7.09151 12.7002 6.90706C12.5857 6.86173 12.465 6.81697 12.3677 6.79644C12.2665 6.7762 12.197 6.78048 12.1221 6.81355C12.0465 6.8469 11.9712 6.90734 11.9 6.9712C11.8288 7.03677 11.7616 7.09863 11.6989 7.15622C11.5794 7.26883 11.4992 7.36576 11.4486 7.44017C11.3975 7.51372 11.3707 7.5619 11.3457 7.55819C11.3236 7.55534 11.3044 7.49661 11.3228 7.39227C11.3399 7.28822 11.405 7.14567 11.512 7.00056C11.5657 6.92701 11.6247 6.8546 11.6933 6.77535C11.7634 6.69638 11.8477 6.60629 11.9761 6.53502C12.0401 6.50052 12.1171 6.4723 12.1979 6.46261C12.2781 6.45235 12.3569 6.45719 12.4302 6.46945C12.5781 6.49625 12.7002 6.54186 12.831 6.59261C13.351 6.79901 13.7413 7.13484 13.9637 7.41166C14.0761 7.55049 14.1503 7.67422 14.1921 7.76431C14.2328 7.85554 14.2433 7.91198 14.2235 7.92453Z" fill="#FCE9B9"/>
<path d="M16.143 10.3478C16.102 10.3179 16.2575 10.0713 16.4776 9.67445C16.5854 9.47546 16.7043 9.23542 16.7909 8.9606C16.8758 8.68692 16.9269 8.37132 16.8874 8.05402C16.8691 7.89637 16.8249 7.74385 16.7659 7.61214C16.7057 7.48129 16.6267 7.38921 16.5183 7.31879C16.3003 7.17938 16.0236 7.13576 15.8006 7.09899C15.5774 7.06307 15.4033 7.06478 15.2847 7.08901C15.1667 7.11239 15.101 7.14631 15.0844 7.12693C15.0699 7.11182 15.1083 7.03741 15.2368 6.96557C15.3638 6.89344 15.5762 6.8521 15.8216 6.8598C15.9436 6.86294 16.0759 6.87121 16.2224 6.89544C16.3677 6.92138 16.5281 6.96272 16.6868 7.05309C16.8458 7.13976 16.9914 7.29798 17.0725 7.46931C17.1548 7.63894 17.2086 7.8214 17.2315 8.01326C17.2789 8.39727 17.2062 8.75904 17.0938 9.06123C16.9787 9.36428 16.8264 9.60945 16.686 9.8016C16.545 9.99375 16.4159 10.1354 16.3206 10.2278C16.2247 10.3193 16.1619 10.3621 16.143 10.3478Z" fill="#FCE9B9"/>
<path d="M18.979 11.9741C18.9729 11.9966 18.9162 12.006 18.8209 12.0038C18.7691 12.0012 18.7122 11.9981 18.6491 11.9949C18.5805 11.9898 18.5058 11.9841 18.4247 11.9778C18.2593 11.9638 18.0631 11.9519 17.846 11.943C17.7373 11.9413 17.6234 11.935 17.5053 11.9373C17.3873 11.9359 17.2653 11.9405 17.14 11.9433C17.015 11.9504 16.8929 11.955 16.7752 11.9658C16.6572 11.973 16.5441 11.9878 16.436 11.9978C16.2204 12.0234 16.0256 12.0508 15.8617 12.0773C15.7815 12.0896 15.7076 12.1013 15.6393 12.1115C15.5768 12.1195 15.5202 12.1269 15.4687 12.1335C15.3737 12.1432 15.3167 12.1383 15.3089 12.1161C15.3007 12.0941 15.3429 12.0568 15.4269 12.0077C15.4687 11.9829 15.5213 11.9559 15.5844 11.9293C15.6472 11.9023 15.719 11.8712 15.8009 11.8444C15.9634 11.7865 16.1622 11.7326 16.3866 11.6882C16.4991 11.6685 16.6174 11.6463 16.7415 11.6343C16.8653 11.6186 16.9941 11.6109 17.126 11.6035C17.2583 11.6006 17.3873 11.5984 17.512 11.6043C17.6367 11.6069 17.7565 11.62 17.8701 11.6309C18.0974 11.6579 18.3 11.6959 18.4665 11.7412C18.5503 11.7614 18.6244 11.7871 18.6892 11.809C18.754 11.8307 18.8086 11.8535 18.8525 11.8752C18.9406 11.9177 18.9854 11.9516 18.979 11.9741Z" fill="#FCE9B9"/>
<path d="M18.9747 20.2102C18.9852 20.2304 18.8751 20.3111 18.6626 20.434C18.4501 20.5569 18.1339 20.7191 17.7299 20.8941C17.3261 21.0694 16.8329 21.2536 16.2687 21.411C15.9862 21.488 15.6874 21.5624 15.3726 21.6191C15.0584 21.677 14.73 21.7231 14.3914 21.7519C14.0522 21.779 13.7197 21.7864 13.3991 21.7776C13.0782 21.7705 12.7698 21.7388 12.478 21.6995C12.1859 21.6596 11.9118 21.6011 11.6575 21.539C11.4043 21.4726 11.1712 21.4013 10.9631 21.3235C10.7547 21.2471 10.5707 21.1669 10.4126 21.0903C10.2539 21.0141 10.1222 20.9403 10.0167 20.8762C9.91004 20.8146 9.83389 20.7553 9.78215 20.7162C9.731 20.6757 9.70745 20.6498 9.71327 20.6398C9.71937 20.6298 9.75483 20.6358 9.81645 20.6566C9.87865 20.676 9.9641 20.7159 10.078 20.7584C10.1905 20.8035 10.3277 20.8582 10.489 20.9158C10.6501 20.9739 10.8346 21.0364 11.041 21.0957C11.2471 21.1567 11.4758 21.2123 11.7226 21.2647C11.9705 21.3126 12.2362 21.3591 12.5184 21.389C12.8006 21.4184 13.0977 21.4423 13.4066 21.4449C13.7153 21.4489 14.0353 21.4395 14.362 21.4135C15.6711 21.3038 16.8239 20.9583 17.6389 20.6712C18.0476 20.5272 18.3754 20.4004 18.6039 20.3148C18.8332 20.2296 18.9637 20.1888 18.9747 20.2102Z" fill="#FCE9B9"/>
<path opacity="0.24" d="M20.4604 6.76343L5.1687 15.316C5.1687 15.316 5.66165 17.2742 7.4117 19.0244L22.8935 11.0608C22.8935 11.0608 22.0599 7.31222 20.4604 6.76343Z" fill="#FCE9B9"/>
<g opacity="0.64">
<path d="M6.25594 19.3497C6.22658 19.3868 6.14578 19.3808 6.01469 19.3315C5.88593 19.2801 5.7095 19.1809 5.50721 19.0216C5.30433 18.8633 5.07616 18.6441 4.84596 18.3662C4.61518 18.0888 4.38033 17.7532 4.15304 17.3743C4.03823 17.185 3.92487 16.9852 3.81123 16.7777C3.69758 16.5707 3.58103 16.3535 3.46447 16.1163C3.34879 15.8794 3.23427 15.6242 3.13574 15.344C3.0375 15.066 2.95524 14.755 2.91048 14.4388C2.81631 13.8056 2.84596 13.1614 2.90176 12.537C2.95873 11.9107 3.04186 11.2604 3.17556 10.5981C3.30635 9.93561 3.48162 9.29274 3.69729 8.68408C3.91208 8.07543 4.17484 7.50297 4.46753 6.97984C5.0564 5.92816 5.79379 5.10341 6.50125 4.52583C6.85382 4.23475 7.20319 4.0084 7.52117 3.83392C7.83769 3.65631 8.1298 3.54 8.37017 3.45704C8.61432 3.38064 8.80732 3.33702 8.94655 3.33075C9.08432 3.32162 9.16337 3.33873 9.18081 3.38235C9.19825 3.42597 9.15349 3.49439 9.05612 3.58276C8.9573 3.66829 8.81081 3.78546 8.62246 3.92458C8.43761 4.07054 8.2106 4.23931 7.96616 4.45598C7.71997 4.66922 7.44995 4.92038 7.1779 5.22086C6.63234 5.81783 6.06178 6.59897 5.60254 7.55343C5.37263 8.03209 5.1622 8.55038 4.98519 9.10487C4.8076 9.65907 4.65645 10.2464 4.53554 10.8593C4.41172 11.4711 4.32452 12.0795 4.25273 12.671C4.18123 13.2634 4.13705 13.8062 4.1792 14.2931C4.21495 14.7709 4.35563 15.2259 4.52275 15.6761C4.60617 15.8996 4.69569 16.1214 4.78173 16.3358C4.86747 16.5496 4.94915 16.7526 5.02966 16.9433C5.34647 17.7093 5.65777 18.2806 5.90831 18.6666C6.03097 18.8611 6.13444 19.011 6.1981 19.1239C6.26262 19.2348 6.28529 19.3126 6.25594 19.3497Z" fill="#FCE9B9"/>
</g>
<g opacity="0.64">
<path d="M13.6135 2.5044C13.6164 2.69255 13.4766 2.86361 13.2591 2.99674C13.0406 3.12987 12.7441 3.22737 12.4107 3.26786C12.077 3.30862 11.7652 3.28525 11.5202 3.20827C11.276 3.1313 11.0978 2.99902 11.0536 2.81571C11.0098 2.63383 11.1129 2.43427 11.3272 2.26635C11.5405 2.09844 11.8655 1.96502 12.2401 1.9194C12.6148 1.87379 12.9633 1.92539 13.2118 2.03686C13.4609 2.1489 13.6106 2.31767 13.6135 2.5044Z" fill="#FCE9B9"/>
</g>
<defs>
<linearGradient id="paint0_linear_759_3944" x1="13.6165" y1="11.625" x2="15.6606" y2="23.0725" gradientUnits="userSpaceOnUse">
<stop offset="0.0015" stop-color="#FADC4E"/>
<stop offset="1" stop-color="#F5D132"/>
</linearGradient>
<linearGradient id="paint1_linear_759_3944" x1="17.0318" y1="5.25917" x2="10.3503" y2="21.6028" gradientUnits="userSpaceOnUse">
<stop stop-color="#DC9E2E"/>
<stop offset="0.9971" stop-color="#DBAA2E"/>
</linearGradient>
<linearGradient id="paint2_linear_759_3944" x1="12.8692" y1="6.50407" x2="15.3793" y2="20.3322" gradientUnits="userSpaceOnUse">
<stop offset="0.0015" stop-color="#FADC4E"/>
<stop offset="1" stop-color="#F5D132"/>
</linearGradient>
<linearGradient id="paint3_linear_759_3944" x1="12.091" y1="6.64544" x2="14.601" y2="20.4732" gradientUnits="userSpaceOnUse">
<stop offset="0.0015" stop-color="#FADC4E"/>
<stop offset="1" stop-color="#F5D132"/>
</linearGradient>
</defs>
</svg>
