<svg width="22" height="22" viewBox="0 0 22 22" fill="none" xmlns="http://www.w3.org/2000/svg">
<path d="M11.9666 21.0478C17.5079 20.522 21.5672 15.6712 21.0334 10.2132C20.4995 4.7553 15.5746 0.757041 10.0334 1.28288C4.49209 1.80871 0.432782 6.65952 0.966645 12.1175C1.50051 17.5754 6.42538 21.5737 11.9666 21.0478Z" fill="#C18D25"/>
<path d="M11.0165 20.0006C16.5834 20.0006 21.0962 15.5556 21.0962 10.0724C21.0962 4.58927 16.5834 0.144287 11.0165 0.144287C5.44961 0.144287 0.936768 4.58927 0.936768 10.0724C0.936768 15.5556 5.44961 20.0006 11.0165 20.0006Z" fill="url(#paint0_linear_319_1727)"/>
<path d="M11.0165 17.638C15.2587 17.638 18.6978 14.2507 18.6978 10.0722C18.6978 5.89378 15.2587 2.50647 11.0165 2.50647C6.77423 2.50647 3.33521 5.89378 3.33521 10.0722C3.33521 14.2507 6.77423 17.638 11.0165 17.638Z" fill="url(#paint1_linear_319_1727)"/>
<path d="M18.6986 9.94381C18.6519 9.94502 18.6242 9.61164 18.5091 9.02908C18.391 8.44993 18.1709 7.61185 17.6573 6.69275C17.4006 6.23502 17.0727 5.75904 16.6606 5.30058C16.2448 4.84578 15.7502 4.40338 15.1674 4.02693C14.8771 3.83809 14.568 3.66094 14.2377 3.51007C13.9086 3.35749 13.5635 3.21976 13.2006 3.11512C12.8386 3.00951 12.4636 2.92166 12.0767 2.87032C11.6903 2.81849 11.2945 2.79391 10.8935 2.7978C10.4926 2.80729 10.0978 2.84525 9.7131 2.90974C9.32819 2.97398 8.95636 3.07424 8.59813 3.19202C8.23915 3.30858 7.89871 3.45799 7.57506 3.62152C7.25018 3.78358 6.94729 3.97071 6.66366 4.16928C6.09395 4.56496 5.6149 5.0239 5.21492 5.49234C4.81888 5.96467 4.50759 6.45111 4.26695 6.91735C3.78544 7.85325 3.59446 8.69813 3.49638 9.28094C3.40151 9.86691 3.3852 10.2008 3.33851 10.2013C3.30417 10.2025 3.24216 9.86861 3.26859 9.25709C3.29873 8.64995 3.43239 7.75324 3.89118 6.74117C4.12045 6.23745 4.42927 5.70794 4.83445 5.19132C5.24308 4.6786 5.74263 4.17439 6.34471 3.73711C6.64464 3.51785 6.96656 3.31101 7.31343 3.13143C7.65906 2.95038 8.02397 2.78515 8.40987 2.6552C8.79503 2.52428 9.19576 2.41332 9.61082 2.34178C10.0256 2.26975 10.4518 2.22789 10.8839 2.21792C11.316 2.21354 11.7432 2.24128 12.1602 2.29919C12.5775 2.35662 12.9819 2.4542 13.371 2.57222C13.7611 2.68927 14.1315 2.84209 14.4831 3.01146C14.8356 3.17936 15.1647 3.3755 15.4718 3.58429C16.0884 4.00089 16.605 4.4883 17.0312 4.98691C17.4539 5.48942 17.7808 6.00847 18.0273 6.50416C18.5207 7.50016 18.6853 8.39201 18.7364 8.99793C18.7836 9.60799 18.7332 9.94405 18.6986 9.94381Z" fill="#C18D25"/>
<path d="M11.2453 9.75733C11.6865 9.50109 14.8792 6.74523 13.5036 5.38446C12.4637 4.35585 11.4031 5.94025 11.4031 5.94025C11.4031 5.94025 10.3188 4.55904 9.5445 4.88074C8.77022 5.20244 8.054 7.25017 11.1953 9.77679H11.1961C11.1944 9.77752 11.1929 9.77801 11.1911 9.77874C11.1837 9.7819 11.183 9.81305 11.1872 9.86318C10.8169 9.56095 7.04106 7.56773 6.23121 9.32418C5.62196 10.6458 7.50158 11.0631 7.50158 11.0631C7.50158 11.0631 6.57314 12.5502 7.15224 13.15C7.72838 13.7467 9.90644 13.6849 11.1983 9.95468C11.3208 10.7952 12.2733 14.3765 14.0318 13.8569C15.4433 13.4398 14.5264 11.7707 14.5264 11.7707C14.5264 11.7707 16.2744 11.4817 16.3522 10.6575C16.43 9.8369 14.9496 8.26077 11.2453 9.75733Z" fill="url(#paint2_linear_319_1727)"/>
<path d="M11.2052 8.83441C11.2052 8.83441 10.9023 14.3773 10.5423 15.0613L11.1135 15.0696C11.1135 15.0696 11.51 11.7197 11.2012 8.91885" fill="url(#paint3_linear_319_1727)"/>
<path d="M21.095 10.2159C21.0848 10.2156 21.0737 10.1066 21.0619 9.89954C21.0572 9.79612 21.0505 9.66812 21.0337 9.51749C21.0194 9.36686 21.0075 9.19287 20.9771 8.99868C20.9319 8.60885 20.8383 8.13676 20.6933 7.59971C20.5455 7.06362 20.3308 6.46427 20.0178 5.83742C19.7048 5.2113 19.2956 4.55646 18.7706 3.92012C18.2407 3.28889 17.6021 2.66982 16.8401 2.13569C16.4607 1.86777 16.0547 1.61518 15.6192 1.39641C15.1851 1.17594 14.728 0.974697 14.2458 0.817498C13.7645 0.658838 13.2645 0.524027 12.7471 0.43837C12.23 0.35174 11.6994 0.301611 11.1605 0.290417C10.6217 0.28628 10.0893 0.321322 9.56996 0.393108C9.05015 0.464164 8.54615 0.584619 8.06043 0.729408C7.57348 0.87298 7.11074 1.06108 6.67024 1.26914C6.22825 1.47525 5.81517 1.71641 5.42778 1.97338C4.65054 2.48561 3.99386 3.08618 3.44563 3.70233C2.90211 4.32358 2.47395 4.96649 2.1429 5.58337C1.81159 6.20097 1.57961 6.79375 1.4163 7.32546C1.25571 7.85789 1.14824 8.3273 1.09142 8.71568C1.05535 8.90889 1.0383 9.08239 1.01952 9.23254C0.998524 9.38268 0.988147 9.51019 0.980241 9.61361C0.962206 9.82021 0.947878 9.92898 0.937748 9.92874C0.927619 9.9285 0.921936 9.81948 0.920948 9.61093C0.919219 9.50654 0.920207 9.37757 0.932313 9.22524C0.941948 9.0729 0.950101 8.89672 0.977771 8.7001C1.01755 8.30491 1.1097 7.82601 1.25793 7.2802C1.40889 6.73535 1.63149 6.12602 1.9576 5.48944C2.28372 4.85358 2.71138 4.18901 3.26009 3.54586C3.81326 2.90781 4.48081 2.28485 5.2751 1.75242C5.67089 1.48547 6.09385 1.23483 6.54695 1.0202C6.99858 0.803627 7.47416 0.607736 7.9747 0.45808C8.47425 0.307208 8.99283 0.181643 9.52771 0.107424C10.0623 0.0324742 10.6103 -0.00402782 11.165 0.000352348C11.7194 0.0117895 12.2656 0.0641082 12.7978 0.154145C13.3304 0.243695 13.8448 0.383618 14.3394 0.548847C14.8353 0.712617 15.3047 0.921892 15.7496 1.15112C16.1963 1.37865 16.6116 1.64097 16.9992 1.91911C17.7775 2.47393 18.4262 3.11563 18.9606 3.769C19.4903 4.42749 19.8982 5.10374 20.2056 5.7486C20.5129 6.39419 20.7175 7.0096 20.8526 7.55858C20.9848 8.10829 21.0629 8.58987 21.0913 8.98603C21.1133 9.18338 21.1162 9.35981 21.1214 9.51238C21.1288 9.66471 21.1261 9.79393 21.1214 9.89832C21.114 10.1069 21.1053 10.2159 21.095 10.2159Z" fill="#FCE9B9"/>
<path d="M11.0575 9.71393C11.0454 9.73023 10.9594 9.69446 10.8149 9.61854C10.74 9.58447 10.653 9.53629 10.5483 9.48786C10.4959 9.46304 10.4403 9.43676 10.3815 9.40902C10.3215 9.38298 10.2582 9.35573 10.192 9.32726C10.0584 9.27226 9.91112 9.21508 9.75053 9.16106C9.58994 9.10655 9.41601 9.0569 9.23171 9.01067C9.04617 8.96881 8.85124 8.92672 8.64618 8.90044C8.44186 8.86978 8.2284 8.8542 8.00976 8.84593C7.79086 8.84009 7.57691 8.84593 7.37136 8.86272C7.16432 8.8778 6.97582 8.90482 6.82215 8.97368C6.6665 9.0423 6.53556 9.14864 6.43921 9.26788C6.34236 9.38761 6.2801 9.5195 6.24749 9.64628C6.21463 9.77355 6.20994 9.89668 6.21982 10.0033C6.22921 10.1103 6.25169 10.2023 6.27566 10.2761C6.32482 10.4235 6.37201 10.5021 6.35422 10.5155C6.34039 10.5269 6.26009 10.471 6.17115 10.3223C6.12767 10.2481 6.08468 10.15 6.05726 10.0288C6.02959 9.90836 6.01822 9.76382 6.04342 9.60613C6.06862 9.44844 6.13286 9.27932 6.24329 9.12455C6.35323 8.97003 6.50913 8.82841 6.70628 8.73204C6.90615 8.63398 7.13023 8.59966 7.34443 8.57971C7.56135 8.55781 7.7874 8.54978 8.01865 8.55586C8.2494 8.56462 8.47472 8.58312 8.68941 8.61937C8.90485 8.65101 9.10892 8.7009 9.30162 8.75248C9.49309 8.80845 9.6727 8.86929 9.8365 8.93621C10.0006 9.00264 10.1493 9.07345 10.2822 9.1428C10.3474 9.17906 10.4099 9.21362 10.469 9.24647C10.5258 9.28224 10.5794 9.31607 10.6301 9.3477C10.7301 9.41146 10.8104 9.47497 10.8771 9.52461C11.0056 9.63095 11.0693 9.69787 11.0575 9.71393Z" fill="#FCE9B9"/>
<path d="M11.3488 5.92108C11.3315 5.93227 11.2905 5.90526 11.2295 5.85075C11.1675 5.79697 11.0842 5.71667 10.977 5.62445C10.764 5.43999 10.4485 5.21003 10.054 5.05259C9.95664 5.0139 9.85412 4.97569 9.77135 4.95817C9.68537 4.94089 9.62633 4.94455 9.56259 4.97277C9.49835 5.00124 9.43436 5.05283 9.37383 5.10734C9.3133 5.16331 9.25623 5.21612 9.20287 5.26527C9.10133 5.36139 9.03314 5.44413 8.99015 5.50764C8.94667 5.57042 8.92394 5.61155 8.90269 5.60838C8.88392 5.60595 8.86761 5.55582 8.88318 5.46676C8.89775 5.37794 8.95309 5.25627 9.04401 5.13241C9.08972 5.06962 9.13987 5.00781 9.19818 4.94017C9.25772 4.87276 9.32936 4.79586 9.43856 4.73503C9.49292 4.70558 9.55839 4.68149 9.62707 4.67322C9.69526 4.66446 9.76221 4.66859 9.82447 4.67906C9.95022 4.70193 10.054 4.74087 10.1652 4.78418C10.6071 4.96036 10.9389 5.24702 11.1279 5.48331C11.2236 5.60181 11.2866 5.70742 11.3221 5.78432C11.3567 5.86219 11.3656 5.91037 11.3488 5.92108Z" fill="#FCE9B9"/>
<path d="M12.9804 7.98955C12.9455 7.964 13.0777 7.75351 13.2647 7.41478C13.3564 7.24493 13.4574 7.04003 13.5311 6.80545C13.6032 6.57184 13.6467 6.30246 13.6131 6.03162C13.5975 5.89705 13.56 5.76686 13.5098 5.65444C13.4587 5.54274 13.3915 5.46414 13.2993 5.40404C13.114 5.28504 12.8788 5.24781 12.6893 5.21642C12.4996 5.18576 12.3516 5.18722 12.2508 5.2079C12.1505 5.22786 12.0947 5.25682 12.0806 5.24027C12.0682 5.22737 12.1009 5.16386 12.2101 5.10254C12.318 5.04097 12.4986 5.00569 12.7071 5.01226C12.8109 5.01493 12.9233 5.02199 13.0478 5.04267C13.1714 5.06482 13.3077 5.1001 13.4426 5.17724C13.5778 5.25122 13.7015 5.38627 13.7705 5.53252C13.8404 5.67731 13.8861 5.83305 13.9056 5.99682C13.9459 6.3246 13.8841 6.63341 13.7885 6.89135C13.6907 7.15002 13.5612 7.3593 13.4419 7.52331C13.3221 7.68732 13.2124 7.80827 13.1313 7.88711C13.0498 7.96522 12.9964 8.00172 12.9804 7.98955Z" fill="#FCE9B9"/>
<path d="M15.3909 9.37767C15.3857 9.39689 15.3375 9.40492 15.2565 9.40297C15.2125 9.40078 15.1641 9.39811 15.1105 9.39543C15.0522 9.39105 14.9887 9.38618 14.9198 9.38083C14.7792 9.36891 14.6124 9.35869 14.4279 9.35114C14.3355 9.34968 14.2386 9.34433 14.1383 9.34627C14.038 9.34506 13.9342 9.34895 13.8278 9.35138C13.7215 9.35747 13.6178 9.36136 13.5177 9.37061C13.4174 9.37669 13.3213 9.38935 13.2294 9.39786C13.0461 9.41976 12.8805 9.44313 12.7412 9.46576C12.673 9.47622 12.6103 9.4862 12.5522 9.49496C12.4991 9.50177 12.4509 9.5081 12.4072 9.51369C12.3264 9.52197 12.278 9.51783 12.2713 9.49885C12.2644 9.48011 12.3002 9.44823 12.3716 9.40638C12.4072 9.38521 12.4519 9.36209 12.5055 9.33946C12.5589 9.31634 12.6199 9.28982 12.6896 9.26694C12.8277 9.21755 12.9967 9.17155 13.1874 9.13359C13.283 9.1168 13.3835 9.09782 13.489 9.0876C13.5943 9.07422 13.7037 9.06765 13.8159 9.06132C13.9283 9.05889 14.038 9.05694 14.144 9.06205C14.25 9.06424 14.3518 9.07543 14.4484 9.08468C14.6416 9.1078 14.8138 9.14016 14.9553 9.17885C15.0265 9.19613 15.0895 9.21803 15.1446 9.23677C15.1997 9.25526 15.2461 9.27473 15.2834 9.29323C15.3583 9.32948 15.3963 9.35844 15.3909 9.37767Z" fill="#FCE9B9"/>
<path d="M15.3875 16.4077C15.3964 16.425 15.3028 16.4939 15.1222 16.5988C14.9416 16.7036 14.6728 16.8421 14.3294 16.9915C13.9862 17.1412 13.5669 17.2984 13.0874 17.4327C12.8473 17.4984 12.5933 17.5619 12.3257 17.6103C12.0587 17.6597 11.7795 17.6992 11.4917 17.7237C11.2033 17.7469 10.9207 17.7532 10.6482 17.7456C10.3755 17.7396 10.1133 17.7125 9.86528 17.679C9.61698 17.6449 9.38401 17.595 9.16783 17.542C8.95265 17.4853 8.7545 17.4244 8.57761 17.358C8.40047 17.2928 8.24408 17.2244 8.10968 17.1589C7.97479 17.094 7.86287 17.0309 7.77319 16.9762C7.68252 16.9236 7.61779 16.873 7.57381 16.8397C7.53033 16.8051 7.51032 16.783 7.51526 16.7745C7.52045 16.7659 7.55059 16.7711 7.60297 16.7888C7.65584 16.8054 7.72847 16.8394 7.82532 16.8757C7.92093 16.9141 8.03754 16.9609 8.17466 17.01C8.31153 17.0597 8.46841 17.1129 8.64382 17.1636C8.81899 17.2156 9.01342 17.2631 9.22317 17.3079C9.43391 17.3487 9.65973 17.3884 9.89962 17.414C10.1395 17.439 10.392 17.4595 10.6546 17.4617C10.917 17.4651 11.189 17.457 11.4667 17.4349C12.5795 17.3412 13.5593 17.0463 14.252 16.8012C14.5994 16.6783 14.8781 16.5701 15.0723 16.497C15.2672 16.4243 15.3781 16.3895 15.3875 16.4077Z" fill="#FCE9B9"/>
<path opacity="0.24" d="M16.6504 4.92975L3.65247 12.23C3.65247 12.23 4.07148 13.9016 5.55901 15.3954L18.7186 8.5979C18.7186 8.5979 18.01 5.39818 16.6504 4.92975Z" fill="#FCE9B9"/>
<g opacity="0.64">
<path d="M4.57641 15.6734C4.55146 15.705 4.48277 15.6999 4.37135 15.6578C4.2619 15.614 4.11194 15.5293 3.93999 15.3933C3.76754 15.2582 3.5736 15.0711 3.37793 14.8339C3.18177 14.5971 2.98214 14.3107 2.78894 13.9873C2.69136 13.8257 2.595 13.6551 2.4984 13.4779C2.4018 13.3013 2.30273 13.1159 2.20366 12.9134C2.10533 12.7112 2.00799 12.4934 1.92424 12.2542C1.84074 12.0169 1.77082 11.7514 1.73277 11.4816C1.65272 10.9411 1.67792 10.3911 1.72536 9.85822C1.77378 9.3236 1.84444 8.76853 1.95809 8.20325C2.06926 7.63772 2.21824 7.08898 2.40156 6.56945C2.58413 6.04991 2.80747 5.56128 3.05626 5.11474C3.5568 4.21705 4.18359 3.51306 4.78493 3.02005C5.08461 2.77159 5.38157 2.57838 5.65185 2.42945C5.9209 2.27785 6.16919 2.17857 6.37351 2.10776C6.58104 2.04254 6.74508 2.00531 6.86343 1.99995C6.98053 1.99217 7.04773 2.00677 7.06255 2.044C7.07738 2.08123 7.03933 2.13963 6.95657 2.21507C6.87257 2.28807 6.74805 2.38809 6.58796 2.50684C6.43083 2.63143 6.23787 2.77549 6.0301 2.96043C5.82084 3.14245 5.59132 3.35683 5.36008 3.61332C4.89635 4.12288 4.41137 4.78964 4.02102 5.60435C3.8256 6.01292 3.64673 6.45532 3.49627 6.92862C3.34532 7.40168 3.21685 7.90296 3.11407 8.42615C3.00883 8.94836 2.93471 9.46766 2.87369 9.97259C2.81291 10.4783 2.77536 10.9416 2.81118 11.3572C2.84157 11.7651 2.96114 12.1534 3.1032 12.5377C3.17411 12.7285 3.2502 12.9178 3.32333 13.1008C3.39621 13.2833 3.46564 13.4565 3.53407 13.6193C3.80336 14.2732 4.06796 14.7608 4.28093 15.0903C4.38519 15.2563 4.47314 15.3843 4.52724 15.4807C4.58209 15.5753 4.60136 15.6417 4.57641 15.6734Z" fill="#FCE9B9"/>
</g>
<g opacity="0.64">
<path d="M10.8304 1.29455C10.8329 1.45516 10.714 1.60116 10.5292 1.7148C10.3435 1.82844 10.0915 1.91167 9.80809 1.94622C9.52446 1.98102 9.25937 1.96107 9.0511 1.89536C8.84357 1.82966 8.69213 1.71675 8.65457 1.56028C8.61727 1.40503 8.70497 1.23469 8.88705 1.09136C9.06839 0.94803 9.34461 0.834145 9.66306 0.795211C9.98152 0.756276 10.2777 0.80032 10.489 0.895468C10.7007 0.991101 10.8279 1.13516 10.8304 1.29455Z" fill="#FCE9B9"/>
</g>
<defs>
<linearGradient id="paint0_linear_319_1727" x1="10.833" y1="9.07981" x2="12.5846" y2="18.8486" gradientUnits="userSpaceOnUse">
<stop offset="0.0015" stop-color="#FADC4E"/>
<stop offset="1" stop-color="#F5D132"/>
</linearGradient>
<linearGradient id="paint1_linear_319_1727" x1="13.7359" y1="3.64587" x2="8.01563" y2="17.5796" gradientUnits="userSpaceOnUse">
<stop stop-color="#DC9E2E"/>
<stop offset="0.9971" stop-color="#DBAA2E"/>
</linearGradient>
<linearGradient id="paint2_linear_319_1727" x1="10.1977" y1="4.70851" x2="12.3486" y2="16.5087" gradientUnits="userSpaceOnUse">
<stop offset="0.0015" stop-color="#FADC4E"/>
<stop offset="1" stop-color="#F5D132"/>
</linearGradient>
<linearGradient id="paint3_linear_319_1727" x1="9.53622" y1="4.82924" x2="11.6871" y2="16.6291" gradientUnits="userSpaceOnUse">
<stop offset="0.0015" stop-color="#FADC4E"/>
<stop offset="1" stop-color="#F5D132"/>
</linearGradient>
</defs>
</svg>
