<svg width="47" height="46" viewBox="0 0 47 46" fill="none" xmlns="http://www.w3.org/2000/svg">
<path d="M25.103 44.0092C36.7272 42.9097 45.2426 32.7671 44.1227 21.355C43.0028 9.94297 32.6717 1.58297 21.0475 2.68245C9.42327 3.78192 0.907868 13.9245 2.02778 25.3366C3.14769 36.7486 13.4788 45.1086 25.103 44.0092Z" fill="#C18D25"/>
<path d="M23.1099 41.8193C34.7878 41.8193 44.2546 32.5253 44.2546 21.0605C44.2546 9.59569 34.7878 0.301636 23.1099 0.301636C11.432 0.301636 1.96515 9.59569 1.96515 21.0605C1.96515 32.5253 11.432 41.8193 23.1099 41.8193Z" fill="url(#paint0_linear_319_1686)"/>
<path d="M23.1097 36.8795C32.0089 36.8795 39.2231 29.797 39.2231 21.0602C39.2231 12.3234 32.0089 5.24084 23.1097 5.24084C14.2106 5.24084 6.99634 12.3234 6.99634 21.0602C6.99634 29.797 14.2106 36.8795 23.1097 36.8795Z" fill="url(#paint1_linear_319_1686)"/>
<path d="M39.2248 20.7915C39.1269 20.7941 39.0688 20.097 38.8273 18.8789C38.5796 17.668 38.1178 15.9156 37.0403 13.9939C36.5019 13.0368 35.8141 12.0416 34.9497 11.083C34.0774 10.132 33.0398 9.20701 31.8173 8.41989C31.2083 8.02505 30.5599 7.65464 29.867 7.33918C29.1767 7.02016 28.4527 6.73217 27.6913 6.51339C26.9321 6.29256 26.1454 6.10888 25.3337 6.00153C24.5232 5.89315 23.6929 5.84176 22.8518 5.8499C22.0106 5.86974 21.1824 5.94912 20.3755 6.08395C19.568 6.21828 18.7881 6.42791 18.0366 6.67417C17.2835 6.91789 16.5694 7.23029 15.8904 7.57221C15.2089 7.91108 14.5735 8.30235 13.9785 8.71754C12.7834 9.54486 11.7785 10.5045 10.9394 11.4839C10.1087 12.4715 9.45564 13.4886 8.95085 14.4635C7.94075 16.4204 7.54013 18.187 7.33438 19.4056C7.13536 20.6308 7.10116 21.3288 7.0032 21.3299C6.93116 21.3324 6.80108 20.6343 6.85653 19.3557C6.91976 18.0862 7.20014 16.2113 8.16256 14.0951C8.64351 13.0419 9.29135 11.9347 10.1413 10.8545C10.9985 9.78247 12.0464 8.72823 13.3095 7.8139C13.9386 7.35546 14.6139 6.92298 15.3416 6.54748C16.0666 6.16892 16.8321 5.82344 17.6416 5.55174C18.4496 5.278 19.2902 5.04598 20.1609 4.8964C21.0311 4.74579 21.9251 4.65827 22.8316 4.63741C23.738 4.62825 24.6341 4.68626 25.5089 4.80735C26.3843 4.92743 27.2327 5.13146 28.0489 5.37824C28.8673 5.62297 29.6442 5.9425 30.3817 6.29663C31.1212 6.64771 31.8116 7.05781 32.4558 7.49437C33.7493 8.36544 34.833 9.38459 35.7271 10.4271C36.6138 11.4778 37.2995 12.5631 37.8167 13.5996C38.8517 15.6821 39.1968 17.5469 39.3041 18.8138C39.4031 20.0894 39.2974 20.7921 39.2248 20.7915Z" fill="#C18D25"/>
<path d="M23.5897 20.4017C24.5153 19.866 31.2129 14.1037 28.3272 11.2585C26.1458 9.10773 23.9209 12.4206 23.9209 12.4206C23.9209 12.4206 21.6462 9.53258 20.022 10.2052C18.3977 10.8779 16.8953 15.1595 23.485 20.4424H23.4866C23.483 20.444 23.4799 20.445 23.4762 20.4465C23.4607 20.4531 23.4591 20.5182 23.4679 20.6231C22.6911 19.9911 14.7704 15.8235 13.0715 19.4961C11.7935 22.2594 15.7364 23.132 15.7364 23.132C15.7364 23.132 13.7888 26.2413 15.0036 27.4955C16.2122 28.7431 20.7812 28.6139 23.4913 20.8144C23.7483 22.5718 25.7462 30.0599 29.4352 28.9736C32.3961 28.1015 30.4728 24.6116 30.4728 24.6116C30.4728 24.6116 34.1395 24.0071 34.3028 22.2838C34.466 20.5681 31.3606 17.2726 23.5897 20.4017Z" fill="url(#paint2_linear_319_1686)"/>
<path d="M23.5057 18.472C23.5057 18.472 22.8703 30.0616 22.1152 31.4919L23.3134 31.5092C23.3134 31.5092 24.1452 24.5049 23.4974 18.6485" fill="url(#paint3_linear_319_1686)"/>
<path d="M44.252 21.3605C44.2307 21.36 44.2074 21.132 44.1825 20.699C44.1727 20.4828 44.1587 20.2152 44.1234 19.9002C44.0934 19.5853 44.0685 19.2215 44.0047 18.8154C43.9099 18.0003 43.7135 17.0132 43.4093 15.8903C43.0993 14.7694 42.649 13.5162 41.9923 12.2055C41.3357 10.8963 40.4774 9.52714 39.3761 8.19661C38.2644 6.87676 36.9247 5.58236 35.3264 4.46552C34.5303 3.90533 33.6788 3.37719 32.7651 2.91977C31.8545 2.45879 30.8957 2.038 29.8841 1.70931C28.8745 1.37757 27.8255 1.09569 26.7403 0.916592C25.6555 0.735456 24.5423 0.630641 23.412 0.607236C22.2816 0.598586 21.1648 0.671855 20.0754 0.821953C18.9849 0.970525 17.9277 1.22238 16.9088 1.52513C15.8873 1.82532 14.9166 2.21863 13.9925 2.65366C13.0653 3.08462 12.1988 3.58885 11.3861 4.12615C9.75567 5.19719 8.37812 6.45293 7.22808 7.74123C6.0879 9.04021 5.18974 10.3845 4.49527 11.6743C3.80027 12.9657 3.31362 14.2051 2.97105 15.3169C2.63418 16.4301 2.40873 17.4116 2.28953 18.2237C2.21386 18.6277 2.1781 18.9905 2.13871 19.3044C2.09466 19.6183 2.07289 19.8849 2.05631 20.1012C2.01848 20.5332 1.98842 20.7606 1.96717 20.7601C1.94592 20.7596 1.934 20.5316 1.93193 20.0956C1.9283 19.8773 1.93037 19.6076 1.95577 19.2891C1.97598 18.9706 1.99308 18.6022 2.05113 18.1911C2.13457 17.3648 2.32788 16.3635 2.63884 15.2222C2.9555 14.083 3.42246 12.809 4.10657 11.4779C4.79068 10.1484 5.6878 8.75884 6.83887 7.41406C7.99926 6.07997 9.39962 4.77742 11.0658 3.66415C11.8961 3.10599 12.7834 2.58192 13.7339 2.13315C14.6813 1.68031 15.6789 1.27072 16.7289 0.957804C17.7769 0.642343 18.8647 0.3798 19.9868 0.224613C21.1083 0.0679006 22.2578 -0.00842181 23.4213 0.000736728C24.5843 0.0246507 25.7302 0.134044 26.8465 0.322303C27.9639 0.509544 29.0429 0.802109 30.0805 1.14759C31.1207 1.49002 32.1054 1.92759 33.0388 2.40689C33.9758 2.88262 34.847 3.43112 35.6601 4.01269C37.2927 5.17277 38.6537 6.51449 39.7747 7.88064C40.8858 9.25747 41.7415 10.6715 42.3862 12.0198C43.0309 13.3697 43.46 14.6564 43.7435 15.8043C44.0208 16.9537 44.1846 17.9606 44.2442 18.789C44.2903 19.2016 44.2965 19.5705 44.3074 19.8895C44.323 20.208 44.3173 20.4782 44.3074 20.6965C44.2919 21.1325 44.2737 21.3605 44.252 21.3605Z" fill="#FCE9B9"/>
<path d="M23.196 20.311C23.1706 20.3451 22.9903 20.2703 22.6871 20.1115C22.53 20.0403 22.3476 19.9395 22.1279 19.8383C22.018 19.7864 21.9014 19.7314 21.778 19.6734C21.6521 19.619 21.5194 19.562 21.3805 19.5025C21.1001 19.3875 20.7913 19.2679 20.4544 19.155C20.1175 19.041 19.7527 18.9372 19.366 18.8405C18.9768 18.753 18.5679 18.665 18.1377 18.61C17.7091 18.5459 17.2614 18.5133 16.8027 18.496C16.3435 18.4838 15.8947 18.496 15.4635 18.5312C15.0292 18.5627 14.6337 18.6192 14.3114 18.7632C13.9849 18.9067 13.7102 19.129 13.5081 19.3783C13.3049 19.6287 13.1743 19.9044 13.1059 20.1695C13.037 20.4356 13.0271 20.6931 13.0479 20.9159C13.0675 21.1398 13.1147 21.3321 13.165 21.4863C13.2681 21.7947 13.3671 21.959 13.3298 21.987C13.3008 22.0109 13.1323 21.8939 12.9458 21.583C12.8545 21.4278 12.7644 21.2227 12.7068 20.9694C12.6488 20.7175 12.6249 20.4153 12.6778 20.0856C12.7307 19.7559 12.8654 19.4022 13.0971 19.0786C13.3277 18.7555 13.6547 18.4594 14.0683 18.2579C14.4876 18.0529 14.9577 17.9811 15.407 17.9394C15.862 17.8936 16.3362 17.8768 16.8213 17.8896C17.3054 17.9079 17.7781 17.9465 18.2284 18.0223C18.6804 18.0885 19.1085 18.1928 19.5127 18.3007C19.9144 18.4177 20.2911 18.5449 20.6347 18.6848C20.9789 18.8237 21.2909 18.9718 21.5697 19.1168C21.7065 19.1926 21.8376 19.2649 21.9615 19.3335C22.0807 19.4083 22.1932 19.4791 22.2994 19.5452C22.5093 19.6785 22.6777 19.8113 22.8177 19.9151C23.0872 20.1375 23.2209 20.2774 23.196 20.311Z" fill="#FCE9B9"/>
<path d="M23.8069 12.3805C23.7706 12.4039 23.6846 12.3474 23.5565 12.2334C23.4265 12.121 23.2518 11.9531 23.0269 11.7602C22.5801 11.3746 21.9183 10.8937 21.0906 10.5645C20.8864 10.4836 20.6714 10.4038 20.4977 10.3671C20.3174 10.331 20.1935 10.3386 20.0598 10.3976C19.9251 10.4572 19.7908 10.565 19.6639 10.679C19.5369 10.796 19.4172 10.9065 19.3052 11.0092C19.0922 11.2102 18.9492 11.3832 18.859 11.516C18.7678 11.6473 18.7201 11.7333 18.6755 11.7267C18.6361 11.7216 18.6019 11.6168 18.6346 11.4305C18.6652 11.2448 18.7812 10.9904 18.972 10.7314C19.0678 10.6002 19.1731 10.4709 19.2954 10.3295C19.4203 10.1885 19.5706 10.0277 19.7996 9.90054C19.9137 9.83898 20.051 9.78861 20.1951 9.77131C20.3381 9.75299 20.4786 9.76164 20.6092 9.78352C20.873 9.83135 21.0906 9.91275 21.3239 10.0033C22.251 10.3717 22.9471 10.9711 23.3435 11.4651C23.5441 11.7129 23.6763 11.9337 23.7509 12.0945C23.8235 12.2573 23.8421 12.3581 23.8069 12.3805Z" fill="#FCE9B9"/>
<path d="M27.2297 16.7054C27.1567 16.652 27.4339 16.2119 27.8263 15.5036C28.0185 15.1485 28.2305 14.72 28.385 14.2296C28.5363 13.7411 28.6275 13.1778 28.557 12.6115C28.5244 12.3302 28.4456 12.058 28.3404 11.8229C28.2331 11.5893 28.0921 11.425 27.8988 11.2993C27.5101 11.0505 27.0167 10.9727 26.6192 10.907C26.2212 10.8429 25.9108 10.846 25.6993 10.8892C25.4889 10.931 25.3718 10.9915 25.3422 10.9569C25.3163 10.9299 25.3847 10.7971 25.6138 10.6689C25.8403 10.5402 26.2191 10.4664 26.6565 10.4801C26.8742 10.4857 27.11 10.5005 27.3712 10.5438C27.6304 10.5901 27.9164 10.6638 28.1994 10.8251C28.4829 10.9798 28.7426 11.2622 28.8872 11.568C29.0338 11.8707 29.1297 12.1964 29.1706 12.5388C29.2551 13.2241 29.1256 13.8698 28.925 14.4092C28.7198 14.95 28.4482 15.3876 28.1979 15.7305C27.9465 16.0735 27.7164 16.3263 27.5464 16.4912C27.3754 16.6545 27.2634 16.7309 27.2297 16.7054Z" fill="#FCE9B9"/>
<path d="M32.2864 19.6078C32.2755 19.648 32.1744 19.6648 32.0045 19.6607C31.9122 19.6561 31.8106 19.6505 31.6982 19.6449C31.5758 19.6358 31.4427 19.6256 31.2981 19.6144C31.0032 19.5895 30.6533 19.5681 30.2662 19.5523C30.0724 19.5493 29.8692 19.5381 29.6588 19.5422C29.4484 19.5396 29.2307 19.5478 29.0073 19.5529C28.7845 19.5656 28.5668 19.5737 28.3569 19.593C28.1465 19.6058 27.9449 19.6322 27.7521 19.65C27.3675 19.6958 27.0203 19.7447 26.728 19.792C26.5849 19.8139 26.4533 19.8347 26.3315 19.853C26.2201 19.8673 26.119 19.8805 26.0273 19.8922C25.8578 19.9095 25.7562 19.9009 25.7422 19.8612C25.7277 19.822 25.8029 19.7554 25.9527 19.6678C26.0273 19.6236 26.1211 19.5752 26.2336 19.5279C26.3455 19.4796 26.4735 19.4241 26.6197 19.3763C26.9094 19.273 27.2639 19.1768 27.664 19.0975C27.8645 19.0624 28.0755 19.0227 28.2968 19.0013C28.5176 18.9733 28.7472 18.9596 28.9824 18.9464C29.2183 18.9413 29.4484 18.9372 29.6707 18.9479C29.893 18.9525 30.1066 18.9759 30.3092 18.9952C30.7145 19.0435 31.0757 19.1112 31.3727 19.1921C31.5219 19.2282 31.6541 19.274 31.7697 19.3132C31.8853 19.3519 31.9827 19.3926 32.0609 19.4312C32.218 19.5071 32.2978 19.5676 32.2864 19.6078Z" fill="#FCE9B9"/>
<path d="M32.2791 34.3071C32.2977 34.3433 32.1013 34.4872 31.7224 34.7065C31.3436 34.9258 30.7797 35.2154 30.0593 35.5278C29.3394 35.8407 28.46 36.1694 27.454 36.4502C26.9502 36.5876 26.4175 36.7204 25.8562 36.8217C25.2959 36.9249 24.7103 37.0074 24.1065 37.0588C23.5017 37.1071 22.9088 37.1203 22.3372 37.1046C21.765 37.0918 21.2151 37.0354 20.6948 36.9651C20.1739 36.8939 19.6852 36.7896 19.2317 36.6787C18.7803 36.5601 18.3647 36.4329 17.9936 36.294C17.622 36.1577 17.2939 36.0147 17.012 35.8778C16.729 35.742 16.4942 35.6102 16.3061 35.4957C16.1159 35.3858 15.9801 35.28 15.8879 35.2103C15.7966 35.138 15.7547 35.0917 15.765 35.0739C15.7759 35.0561 15.8391 35.0668 15.949 35.1039C16.0599 35.1385 16.2123 35.2098 16.4155 35.2856C16.616 35.366 16.8606 35.4637 17.1483 35.5664C17.4354 35.6702 17.7645 35.7817 18.1325 35.8875C18.4999 35.9964 18.9078 36.0956 19.3478 36.1892C19.7899 36.2747 20.2636 36.3576 20.7668 36.4111C21.2701 36.4635 21.7997 36.5062 22.3506 36.5108C22.901 36.5179 23.4716 36.5011 24.0542 36.4548C26.3884 36.2589 28.4439 35.6422 29.8971 35.1299C30.6258 34.8729 31.2104 34.6465 31.6177 34.4939C32.0267 34.3417 32.2594 34.269 32.2791 34.3071Z" fill="#FCE9B9"/>
<path opacity="0.24" d="M34.9284 10.3078L7.66187 25.572C7.66187 25.572 8.54084 29.067 11.6613 32.1906L39.2668 17.9776C39.2668 17.9776 37.7804 11.2873 34.9284 10.3078Z" fill="#FCE9B9"/>
<g opacity="0.64">
<path d="M9.60021 32.7716C9.54786 32.8377 9.40378 32.827 9.17005 32.739C8.94045 32.6474 8.62587 32.4704 8.26515 32.1859C7.9034 31.9035 7.49657 31.5123 7.0861 31.0162C6.6746 30.5211 6.25584 29.9223 5.85055 29.246C5.64584 28.9082 5.44372 28.5515 5.24107 28.1811C5.03843 27.8117 4.83061 27.424 4.62278 27.0007C4.41651 26.5779 4.21232 26.1225 4.03662 25.6223C3.86145 25.1262 3.71478 24.5711 3.63497 24.0069C3.46705 22.8768 3.51991 21.7269 3.61942 20.6126C3.721 19.4947 3.86922 18.3342 4.10763 17.1522C4.34084 15.9697 4.65336 14.8224 5.03791 13.7361C5.42091 12.6498 5.88942 11.6281 6.41132 10.6944C7.46132 8.81742 8.77616 7.34544 10.0376 6.31459C10.6663 5.7951 11.2892 5.39111 11.8562 5.07972C12.4206 4.76273 12.9415 4.55514 13.3701 4.40707C13.8054 4.27071 14.1495 4.19287 14.3978 4.18167C14.6435 4.16539 14.7844 4.19592 14.8155 4.27377C14.8466 4.35162 14.7668 4.47373 14.5932 4.63146C14.417 4.7841 14.1558 4.99322 13.8199 5.24152C13.4903 5.50203 13.0855 5.80324 12.6497 6.18994C12.2107 6.57052 11.7292 7.01878 11.2441 7.55507C10.2714 8.62051 9.25401 10.0146 8.43515 11.7181C8.0252 12.5724 7.64997 13.4974 7.33435 14.4871C7.01769 15.4762 6.74819 16.5243 6.53259 17.6183C6.31181 18.7102 6.15633 19.796 6.02832 20.8517C5.90083 21.909 5.82205 22.8778 5.8972 23.7469C5.96094 24.5996 6.21179 25.4117 6.50979 26.2151C6.65853 26.614 6.81816 27.0098 6.97156 27.3925C7.12445 27.7741 7.27008 28.1363 7.41364 28.4767C7.97855 29.8439 8.53362 30.8635 8.98036 31.5525C9.19907 31.8995 9.38357 32.1671 9.49707 32.3686C9.61213 32.5665 9.65255 32.7054 9.60021 32.7716Z" fill="#FCE9B9"/>
</g>
<g opacity="0.64">
<path d="M22.7195 2.70676C22.7247 3.04258 22.4754 3.34786 22.0877 3.58547C21.698 3.82309 21.1694 3.9971 20.5749 4.06935C19.9799 4.14211 19.4238 4.10039 18.9869 3.96301C18.5516 3.82563 18.2339 3.58954 18.1551 3.26238C18.0769 2.93776 18.2609 2.5816 18.6428 2.28191C19.0232 1.98222 19.6026 1.7441 20.2707 1.66269C20.9387 1.58128 21.5601 1.67338 22.0032 1.87232C22.4474 2.07228 22.7143 2.37349 22.7195 2.70676Z" fill="#FCE9B9"/>
</g>
<defs>
<linearGradient id="paint0_linear_319_1686" x1="22.7249" y1="18.985" x2="26.3763" y2="39.4148" gradientUnits="userSpaceOnUse">
<stop offset="0.0015" stop-color="#FADC4E"/>
<stop offset="1" stop-color="#F5D132"/>
</linearGradient>
<linearGradient id="paint1_linear_319_1686" x1="28.8144" y1="7.62323" x2="16.8816" y2="36.7847" gradientUnits="userSpaceOnUse">
<stop stop-color="#DC9E2E"/>
<stop offset="0.9971" stop-color="#DBAA2E"/>
</linearGradient>
<linearGradient id="paint2_linear_319_1686" x1="21.3922" y1="9.84511" x2="25.8759" y2="34.5234" gradientUnits="userSpaceOnUse">
<stop offset="0.0015" stop-color="#FADC4E"/>
<stop offset="1" stop-color="#F5D132"/>
</linearGradient>
<linearGradient id="paint3_linear_319_1686" x1="20.0047" y1="10.0975" x2="24.4883" y2="34.7752" gradientUnits="userSpaceOnUse">
<stop offset="0.0015" stop-color="#FADC4E"/>
<stop offset="1" stop-color="#F5D132"/>
</linearGradient>
</defs>
</svg>
