<svg width="16" height="20" viewBox="0 0 16 20" fill="none" xmlns="http://www.w3.org/2000/svg">
<path d="M15.4017 5.66406C15.8225 5.66406 16.1143 5.24605 15.9565 4.86273C15.3962 3.50176 14.0371 2.53906 12.4532 2.53906H11.7211C11.448 1.12215 10.1835 0 8.63618 0H7.36382C5.81748 0 4.55212 1.12141 4.27892 2.53906H3.54677C1.96293 2.53906 0.603814 3.50176 0.0434618 4.86273C-0.11435 5.24605 0.177457 5.66406 0.598327 5.66406H15.4017ZM7.36382 1.17188H8.63618C9.50694 1.17188 10.2461 1.74742 10.4949 2.53906H5.50507C5.7539 1.74742 6.49306 1.17188 7.36382 1.17188Z" fill="#7ADA46"/>
<path d="M2.23674 18.367C2.3031 19.2827 3.08706 20 4.02145 20H11.9785C12.9128 20 13.6968 19.2827 13.7632 18.367L14.5991 6.83594H1.40088L2.23674 18.367ZM9.63093 9.97074C9.64739 9.64754 9.92791 9.39828 10.2564 9.4148C10.5854 9.43098 10.8387 9.70609 10.8223 10.0293L10.5042 16.2793C10.4882 16.5925 10.2247 16.8359 9.90898 16.8359C9.56557 16.8359 9.29587 16.5538 9.31281 16.2207L9.63093 9.97074ZM5.74358 9.4148C6.07212 9.39859 6.3526 9.64758 6.36902 9.97074L6.68711 16.2207C6.70405 16.5539 6.43415 16.8359 6.09093 16.8359C5.77523 16.8359 5.51169 16.5925 5.49575 16.2793L5.17766 10.0293C5.16124 9.70609 5.4146 9.43098 5.74358 9.4148Z" fill="#7ADA46"/>
</svg>
