<svg width="30" height="30" viewBox="0 0 30 30" fill="none" xmlns="http://www.w3.org/2000/svg">
<path d="M20.8925 17.9016C20.8925 16.6487 20.521 15.4239 19.8249 14.3821C19.1288 13.3404 18.1395 12.5284 16.9819 12.049C15.8244 11.5695 14.5507 11.4441 13.3218 11.6885C12.093 11.9329 10.9643 12.5363 10.0783 13.4222C9.19239 14.3081 8.58905 15.4369 8.34462 16.6657C8.1002 17.8945 8.22565 19.1683 8.70511 20.3258C9.18458 21.4833 9.99652 22.4727 11.0383 23.1688C12.08 23.8648 13.3048 24.2364 14.5577 24.2364C16.2372 24.2344 17.8474 23.5664 19.0349 22.3788C20.2225 21.1912 20.8906 19.5811 20.8925 17.9016ZM14.4639 23.3524C13.4044 23.3524 12.3687 23.0382 11.4877 22.4496C10.6067 21.861 9.92008 21.0243 9.51461 20.0454C9.10915 19.0665 9.00306 17.9894 9.20976 16.9502C9.41647 15.911 9.92669 14.9565 10.6759 14.2073C11.4251 13.4581 12.3796 12.9478 13.4188 12.7411C14.458 12.5344 15.5351 12.6405 16.514 13.046C17.4929 13.4515 18.3296 14.1381 18.9182 15.0191C19.5069 15.9 19.8211 16.9358 19.8211 17.9953C19.8194 19.4156 19.2545 20.7772 18.2502 21.7815C17.2459 22.7858 15.8842 23.3507 14.4639 23.3523V23.3524Z" fill="#999999"/>
<path d="M18.2162 20.8348C17.8525 19.8511 16.9573 19.1502 16.2609 18.733C16.2232 18.7281 16.1858 18.7213 16.1488 18.7126C16.1582 18.7263 16.1667 18.7407 16.1742 18.7555C16.6783 19.2937 17.3349 20.128 17.6165 21.016C17.7314 21.4022 18.3488 21.2158 18.2162 20.8348Z" fill="#999999"/>
<path d="M14.3843 17.3178C14.3843 17.3178 15.8303 18.3687 15.8545 18.381C16.8332 19.0314 17.755 17.7063 16.7584 17.0055C16.7484 16.9983 16.74 16.9893 16.7335 16.9788C16.7271 16.9684 16.7227 16.9568 16.7208 16.9447C16.7189 16.9326 16.7194 16.9202 16.7222 16.9082C16.7251 16.8963 16.7303 16.8851 16.7376 16.8752C17.2622 16.1468 16.7415 15.4046 16.0277 15.4901C15.9011 15.5149 15.7807 15.5647 15.6737 15.6367C15.5666 15.7086 15.4749 15.8011 15.4041 15.9089L14.3843 17.3178Z" fill="#999999"/>
<path d="M13.2541 18.8791C12.5261 19.8986 13.8431 20.8551 14.5862 19.8443C14.601 19.8243 14.6231 19.811 14.6477 19.807C14.6723 19.8031 14.6974 19.8089 14.7177 19.8233C15.5425 20.4402 16.4001 19.6116 16.0175 18.8585C15.9685 18.7699 15.9068 18.6888 15.8343 18.618C15.7874 18.5721 15.7372 18.5297 15.6841 18.4911L14.2751 17.4701L13.2541 18.8791Z" fill="#999999"/>
<path d="M11.4726 16.4551C11.2455 16.776 11.2267 17.2937 11.7474 17.6721C11.7576 17.679 11.7663 17.6879 11.773 17.6984C11.7796 17.7088 11.7841 17.7205 11.786 17.7327C11.788 17.7449 11.7874 17.7574 11.7843 17.7694C11.7813 17.7814 11.7758 17.7926 11.7682 17.8024C11.3912 18.3241 11.5703 18.8102 11.8861 19.0444C11.9705 19.1062 12.0662 19.1507 12.1678 19.1755C12.2694 19.2002 12.375 19.2047 12.4783 19.1886C12.6048 19.1632 12.725 19.113 12.832 19.0409C12.9389 18.9688 13.0306 18.8763 13.1017 18.7686L14.1226 17.3596L12.7136 16.3386C12.1931 15.9614 11.705 16.1359 11.4726 16.4551Z" fill="#999999"/>
<path d="M12.3987 15.3594C12.3667 15.6701 12.5177 15.9652 12.824 16.186L14.233 17.207L15.254 15.798C15.6311 15.2775 15.4581 14.7904 15.1363 14.5572C14.9658 14.4325 14.7528 14.3807 14.5441 14.413C14.4174 14.4379 14.297 14.4879 14.19 14.5601C14.083 14.6322 13.9914 14.725 13.9207 14.833C13.9135 14.843 13.9043 14.8515 13.8938 14.858C13.8832 14.8645 13.8715 14.8688 13.8593 14.8708C13.8471 14.8727 13.8346 14.8722 13.8226 14.8694C13.8105 14.8665 13.7992 14.8613 13.7892 14.854C13.484 14.6317 13.1583 14.5835 12.8724 14.7071C12.7433 14.7649 12.6316 14.8556 12.5485 14.97C12.4654 15.0845 12.4138 15.2187 12.3987 15.3594Z" fill="#999999"/>
<path d="M17.1323 2.78457L18.1532 3.45729C18.9011 2.38852 19.7553 1.39829 20.7028 0.50177C19.2873 0.833468 18.0275 1.63889 17.1323 2.78457Z" fill="#999999"/>
<path d="M13.9133 10.5235C13.9552 10.5199 13.9972 10.5165 14.0393 10.5136C14.4746 9.37478 15.0167 8.27972 15.6585 7.24309L14.9545 6.77917L14.6377 6.57037C13.9762 7.77547 13.7221 9.16217 13.9133 10.5235Z" fill="#999999"/>
<path d="M17.9301 6.76849L18.6104 5.73563L26.3894 10.8595L25.7091 11.8924L17.9301 6.76849Z" fill="#999999"/>
<path d="M19.0485 4.04729L19.0761 4.06557C19.1349 4.10428 19.1854 4.15419 19.2249 4.21243C19.2643 4.27067 19.2919 4.33612 19.3061 4.40503C19.3202 4.47394 19.3207 4.54496 19.3074 4.61405C19.2941 4.68313 19.2674 4.74893 19.2287 4.80767L19.2059 4.84222L27.4322 10.2633C27.4909 10.302 27.5414 10.3519 27.5809 10.4101C27.6204 10.4684 27.648 10.5338 27.6621 10.6027C27.6763 10.6717 27.6767 10.7427 27.6635 10.8118C27.6502 10.8809 27.6234 10.9466 27.5847 11.0054L26.3145 12.9329C26.2363 13.0515 26.1142 13.1342 25.9751 13.1628C25.9396 13.1701 25.9034 13.1738 25.8672 13.1738C25.7625 13.1738 25.66 13.143 25.5726 13.0854L17.3462 7.66428L17.3234 7.6989C17.2452 7.81751 17.1231 7.9002 16.984 7.92879C16.9485 7.93613 16.9123 7.93981 16.8761 7.93977C16.7713 7.93975 16.6689 7.90902 16.5814 7.85138L16.5535 7.83303C16.0249 8.69024 15.5682 9.58974 15.188 10.5223C17.0355 10.6824 18.7561 11.5289 20.0104 12.8948C21.2646 14.2608 21.9616 16.0471 21.9639 17.9016C21.9639 17.9329 21.9631 17.964 21.9627 17.9954H24.1798C25.7199 17.9901 27.1952 17.3747 28.2823 16.2838C29.3695 15.193 29.9799 13.7156 29.9799 12.1755C29.9799 10.6355 29.3695 9.15814 28.2823 8.06729C27.1952 6.97643 25.7199 6.36097 24.1798 6.35574H24.1091C23.9855 6.35574 23.8657 6.31302 23.77 6.23482C23.6744 6.15661 23.6087 6.04774 23.5841 5.92664C23.4713 5.38683 23.2127 4.88826 22.8364 4.48513C22.4601 4.08201 21.9805 3.78976 21.4497 3.64015C21.3205 3.60439 21.2093 3.52145 21.1383 3.40772C20.9116 3.04538 20.6534 2.70373 20.3668 2.38672C19.8955 2.91419 19.4553 3.46866 19.0485 4.04729Z" fill="#999999"/>
<path d="M15.2317 5.62921L15.209 5.6637L16.6889 6.63917L16.7048 6.64961C16.7115 6.63756 16.7182 6.62557 16.7258 6.61392C16.7565 6.56704 18.0163 4.69989 18.0163 4.69989L18.039 4.6654L16.5243 3.66724L15.2317 5.62921Z" fill="#999999"/>
<path d="M13.5948 3.9101L14.2752 2.87723L15.308 3.55753L14.6277 4.59039L13.5948 3.9101Z" fill="#999999"/>
<path d="M7.15238 17.9952C7.15197 17.964 7.15117 17.9329 7.15117 17.9015C7.1534 16.2338 7.71741 14.6154 8.75222 13.3076C9.78702 11.9997 11.2323 11.0787 12.8548 10.6929C12.5955 8.88459 13.01 7.04401 14.0194 5.52138L14.0422 5.48689L12.5623 4.51143C12.5035 4.47272 12.453 4.42282 12.4135 4.36457C12.3741 4.30633 12.3465 4.24088 12.3323 4.17197C12.3181 4.10306 12.3177 4.03204 12.331 3.96295C12.3442 3.89387 12.371 3.82808 12.4097 3.76933L13.6799 1.84191C13.7581 1.72328 13.8802 1.64058 14.0194 1.61198C14.1585 1.58339 14.3034 1.61125 14.422 1.68943L15.9019 2.66476L15.9247 2.63021C16.4465 1.83601 17.1146 1.14826 17.8934 0.603611C16.3184 -0.0835377 14.5502 -0.187633 12.9055 0.309962C11.2608 0.807558 9.84683 1.87435 8.91688 3.31934C8.86212 3.40399 8.78462 3.4715 8.69326 3.51414C8.6019 3.55678 8.50037 3.57281 8.40032 3.56041C7.51311 3.44702 6.61489 3.65943 5.87245 4.1582C5.13 4.65698 4.59378 5.40822 4.36333 6.27245C4.34027 6.35858 4.29608 6.4376 4.23476 6.50234C4.17344 6.56707 4.09693 6.61548 4.01217 6.64316C2.69578 7.07333 1.57594 7.95881 0.85382 9.14053C0.131702 10.3222 -0.145356 11.7227 0.0724231 13.0904C0.290202 14.458 0.988542 15.7032 2.04198 16.6022C3.09542 17.5012 4.43491 17.9951 5.81979 17.9951L7.15238 17.9952Z" fill="#999999"/>
<path d="M6.16047 21.9643C6.01839 21.9643 5.88213 22.0207 5.78166 22.1212C5.6812 22.2217 5.62476 22.3579 5.62476 22.5V23.5714C5.62476 23.7135 5.6812 23.8498 5.78166 23.9502C5.88213 24.0507 6.01839 24.1071 6.16047 24.1071C6.30255 24.1071 6.43881 24.0507 6.53927 23.9502C6.63974 23.8498 6.69618 23.7135 6.69618 23.5714V22.5C6.69618 22.3579 6.63974 22.2217 6.53927 22.1212C6.43881 22.0207 6.30255 21.9643 6.16047 21.9643Z" fill="#999999"/>
<path d="M6.16047 25.7143C6.01839 25.7143 5.88213 25.7707 5.78166 25.8712C5.6812 25.9717 5.62476 26.1079 5.62476 26.25V27.3214C5.62476 27.4635 5.6812 27.5998 5.78166 27.7002C5.88213 27.8007 6.01839 27.8571 6.16047 27.8571C6.30255 27.8571 6.43881 27.8007 6.53927 27.7002C6.63974 27.5998 6.69618 27.4635 6.69618 27.3214V26.25C6.69618 26.1079 6.63974 25.9717 6.53927 25.8712C6.43881 25.7707 6.30255 25.7143 6.16047 25.7143Z" fill="#999999"/>
<path d="M4.82125 24.375H3.74982C3.60774 24.375 3.47148 24.4314 3.37102 24.5319C3.27055 24.6324 3.21411 24.7686 3.21411 24.9107C3.21411 25.0528 3.27055 25.1891 3.37102 25.2895C3.47148 25.39 3.60774 25.4464 3.74982 25.4464H4.82125C4.96333 25.4464 5.09959 25.39 5.20005 25.2895C5.30052 25.1891 5.35696 25.0528 5.35696 24.9107C5.35696 24.7686 5.30052 24.6324 5.20005 24.5319C5.09959 24.4314 4.96333 24.375 4.82125 24.375Z" fill="#999999"/>
<path d="M8.57125 24.375H7.49982C7.35774 24.375 7.22148 24.4314 7.12102 24.5319C7.02055 24.6324 6.96411 24.7686 6.96411 24.9107C6.96411 25.0528 7.02055 25.1891 7.12102 25.2895C7.22148 25.39 7.35774 25.4464 7.49982 25.4464H8.57125C8.71333 25.4464 8.84959 25.39 8.95005 25.2895C9.05052 25.1891 9.10696 25.0528 9.10696 24.9107C9.10696 24.7686 9.05052 24.6324 8.95005 24.5319C8.84959 24.4314 8.71333 24.375 8.57125 24.375Z" fill="#999999"/>
<path d="M20.6246 24.1072C20.4825 24.1072 20.3462 24.1636 20.2458 24.2641C20.1453 24.3645 20.0889 24.5008 20.0889 24.6429V25.7143C20.0889 25.8564 20.1453 25.9927 20.2458 26.0931C20.3462 26.1936 20.4825 26.25 20.6246 26.25C20.7667 26.25 20.9029 26.1936 21.0034 26.0931C21.1039 25.9927 21.1603 25.8564 21.1603 25.7143V24.6429C21.1603 24.5008 21.1039 24.3645 21.0034 24.2641C20.9029 24.1636 20.7667 24.1072 20.6246 24.1072Z" fill="#999999"/>
<path d="M20.6246 27.8571C20.4825 27.8571 20.3462 27.9136 20.2458 28.014C20.1453 28.1145 20.0889 28.2507 20.0889 28.3928V29.4643C20.0889 29.6063 20.1453 29.7426 20.2458 29.8431C20.3462 29.9435 20.4825 30 20.6246 30C20.7667 30 20.9029 29.9435 21.0034 29.8431C21.1039 29.7426 21.1603 29.6063 21.1603 29.4643V28.3928C21.1603 28.2507 21.1039 28.1145 21.0034 28.014C20.9029 27.9136 20.7667 27.8571 20.6246 27.8571Z" fill="#999999"/>
<path d="M19.2855 26.5178H18.2141C18.072 26.5178 17.9357 26.5743 17.8353 26.6747C17.7348 26.7752 17.6783 26.9115 17.6783 27.0535C17.6783 27.1956 17.7348 27.3319 17.8353 27.4323C17.9357 27.5328 18.072 27.5892 18.2141 27.5892H19.2855C19.4276 27.5892 19.5638 27.5328 19.6643 27.4323C19.7648 27.3319 19.8212 27.1956 19.8212 27.0535C19.8212 26.9115 19.7648 26.7752 19.6643 26.6747C19.5638 26.5743 19.4276 26.5178 19.2855 26.5178Z" fill="#999999"/>
<path d="M23.0354 26.5178H21.9639C21.8219 26.5178 21.6856 26.5743 21.5851 26.6747C21.4847 26.7752 21.4282 26.9115 21.4282 27.0535C21.4282 27.1956 21.4847 27.3319 21.5851 27.4323C21.6856 27.5328 21.8219 27.5892 21.9639 27.5892H23.0354C23.1774 27.5892 23.3137 27.5328 23.4142 27.4323C23.5146 27.3319 23.5711 27.1956 23.5711 27.0535C23.5711 26.9115 23.5146 26.7752 23.4142 26.6747C23.3137 26.5743 23.1774 26.5178 23.0354 26.5178Z" fill="#999999"/>
<path d="M25.4461 21.9643C25.304 21.9643 25.1678 22.0207 25.0673 22.1212C24.9668 22.2217 24.9104 22.3579 24.9104 22.5V23.5714C24.9104 23.7135 24.9668 23.8498 25.0673 23.9502C25.1678 24.0507 25.304 24.1071 25.4461 24.1071C25.5882 24.1071 25.7245 24.0507 25.8249 23.9502C25.9254 23.8498 25.9818 23.7135 25.9818 23.5714V22.5C25.9818 22.3579 25.9254 22.2217 25.8249 22.1212C25.7245 22.0207 25.5882 21.9643 25.4461 21.9643Z" fill="#999999"/>
<path d="M24.1068 20.625H23.0353C22.8933 20.625 22.757 20.6814 22.6565 20.7819C22.5561 20.8824 22.4996 21.0186 22.4996 21.1607C22.4996 21.3028 22.5561 21.4391 22.6565 21.5395C22.757 21.64 22.8933 21.6964 23.0353 21.6964H24.1068C24.2488 21.6964 24.3851 21.64 24.4856 21.5395C24.586 21.4391 24.6425 21.3028 24.6425 21.1607C24.6425 21.0186 24.586 20.8824 24.4856 20.7819C24.3851 20.6814 24.2488 20.625 24.1068 20.625Z" fill="#999999"/>
<path d="M27.8568 20.625H26.7853C26.6433 20.625 26.507 20.6814 26.4065 20.7819C26.3061 20.8824 26.2496 21.0186 26.2496 21.1607C26.2496 21.3028 26.3061 21.4391 26.4065 21.5395C26.507 21.64 26.6433 21.6964 26.7853 21.6964H27.8568C27.9988 21.6964 28.1351 21.64 28.2356 21.5395C28.336 21.4391 28.3925 21.3028 28.3925 21.1607C28.3925 21.0186 28.336 20.8824 28.2356 20.7819C28.1351 20.6814 27.9988 20.625 27.8568 20.625Z" fill="#999999"/>
</svg>
