<svg width="18" height="18" viewBox="0 0 18 18" fill="none" xmlns="http://www.w3.org/2000/svg">
<path fill-rule="evenodd" clip-rule="evenodd" d="M17.3334 3.16675H7.97508L7.26258 4.22925C7.22484 4.28657 7.17352 4.33367 7.11319 4.36638C7.05285 4.3991 6.98538 4.4164 6.91675 4.41675H0.666748V15.2501C0.666748 15.8026 0.886241 16.3325 1.27694 16.7232C1.66764 17.1139 2.19755 17.3334 2.75008 17.3334H15.2501C15.8026 17.3334 16.3325 17.1139 16.7232 16.7232C17.1139 16.3325 17.3334 15.8026 17.3334 15.2501V3.16675ZM4.41675 10.7376V9.83342C4.41675 9.72291 4.37285 9.61693 4.29471 9.53879C4.21657 9.46065 4.11059 9.41675 4.00008 9.41675C3.88957 9.41675 3.78359 9.46065 3.70545 9.53879C3.62731 9.61693 3.58341 9.72291 3.58341 9.83342V10.7376C3.3396 10.8238 3.12852 10.9835 2.97927 11.1947C2.83002 11.4059 2.74995 11.6581 2.75008 11.9168V13.5834C2.74995 13.842 2.83002 14.0943 2.97927 14.3055C3.12852 14.5167 3.3396 14.6764 3.58341 14.7626V15.6668C3.58341 15.7773 3.62731 15.8832 3.70545 15.9614C3.78359 16.0395 3.88957 16.0834 4.00008 16.0834C4.11059 16.0834 4.21657 16.0395 4.29471 15.9614C4.37285 15.8832 4.41675 15.7773 4.41675 15.6668V14.7626C4.66056 14.6764 4.87164 14.5167 5.02089 14.3055C5.17014 14.0943 5.25022 13.842 5.25008 13.5834V11.9168C5.25022 11.6581 5.17014 11.4059 5.02089 11.1947C4.87164 10.9835 4.66056 10.8238 4.41675 10.7376ZM11.0834 9.90425V9.00008C11.0834 8.88958 11.0395 8.7836 10.9614 8.70546C10.8832 8.62732 10.7773 8.58342 10.6667 8.58342C10.5562 8.58342 10.4503 8.62732 10.3721 8.70546C10.294 8.7836 10.2501 8.88958 10.2501 9.00008V9.90425C10.0063 9.99045 9.79519 10.1502 9.64594 10.3613C9.49669 10.5725 9.41661 10.8248 9.41675 11.0834V12.7501C9.41661 13.0087 9.49669 13.261 9.64594 13.4722C9.79519 13.6833 10.0063 13.8431 10.2501 13.9293V15.6668C10.2501 15.7773 10.294 15.8832 10.3721 15.9614C10.4503 16.0395 10.5562 16.0834 10.6667 16.0834C10.7773 16.0834 10.8832 16.0395 10.9614 15.9614C11.0395 15.8832 11.0834 15.7773 11.0834 15.6668V13.9293C11.3272 13.8431 11.5383 13.6833 11.6876 13.4722C11.8368 13.261 11.9169 13.0087 11.9167 12.7501V11.0834C11.9169 10.8248 11.8368 10.5725 11.6876 10.3613C11.5383 10.1502 11.3272 9.99045 11.0834 9.90425ZM14.4167 8.65425V7.75008C14.4167 7.63958 14.3728 7.5336 14.2947 7.45546C14.2166 7.37732 14.1106 7.33342 14.0001 7.33342C13.8896 7.33342 13.7836 7.37732 13.7055 7.45546C13.6273 7.5336 13.5834 7.63958 13.5834 7.75008V8.65425C13.3396 8.74045 13.1285 8.90015 12.9793 9.11134C12.83 9.32253 12.7499 9.57481 12.7501 9.83342V11.5001C12.7499 11.7587 12.83 12.011 12.9793 12.2222C13.1285 12.4333 13.3396 12.5931 13.5834 12.6793V15.6668C13.5834 15.7773 13.6273 15.8832 13.7055 15.9614C13.7836 16.0395 13.8896 16.0834 14.0001 16.0834C14.1106 16.0834 14.2166 16.0395 14.2947 15.9614C14.3728 15.8832 14.4167 15.7773 14.4167 15.6668V12.6793C14.6606 12.5931 14.8716 12.4333 15.0209 12.2222C15.1701 12.011 15.2502 11.7587 15.2501 11.5001V9.83342C15.2502 9.57481 15.1701 9.32253 15.0209 9.11134C14.8716 8.90015 14.6606 8.74045 14.4167 8.65425ZM7.75008 8.65425V7.75008C7.75008 7.63958 7.70618 7.5336 7.62804 7.45546C7.5499 7.37732 7.44392 7.33342 7.33341 7.33342C7.22291 7.33342 7.11693 7.37732 7.03879 7.45546C6.96065 7.5336 6.91675 7.63958 6.91675 7.75008V8.65425C6.67293 8.74045 6.46185 8.90015 6.3126 9.11134C6.16335 9.32253 6.08328 9.57481 6.08341 9.83342V11.5001C6.08328 11.7587 6.16335 12.011 6.3126 12.2222C6.46185 12.4333 6.67293 12.5931 6.91675 12.6793V15.6668C6.91675 15.7773 6.96065 15.8832 7.03879 15.9614C7.11693 16.0395 7.22291 16.0834 7.33341 16.0834C7.44392 16.0834 7.5499 16.0395 7.62804 15.9614C7.70618 15.8832 7.75008 15.7773 7.75008 15.6668V12.6793C7.9939 12.5931 8.20497 12.4333 8.35422 12.2222C8.50347 12.011 8.58355 11.7587 8.58341 11.5001V9.83342C8.58355 9.57481 8.50347 9.32253 8.35422 9.11134C8.20497 8.90015 7.9939 8.74045 7.75008 8.65425ZM4.00008 14.0001C3.88957 14.0001 3.78359 13.9562 3.70545 13.878C3.62731 13.7999 3.58341 13.6939 3.58341 13.5834V11.9168C3.58341 11.8062 3.62731 11.7003 3.70545 11.6221C3.78359 11.544 3.88957 11.5001 4.00008 11.5001C4.11059 11.5001 4.21657 11.544 4.29471 11.6221C4.37285 11.7003 4.41675 11.8062 4.41675 11.9168V13.5834C4.41675 13.6939 4.37285 13.7999 4.29471 13.878C4.21657 13.9562 4.11059 14.0001 4.00008 14.0001ZM10.6667 13.1668C10.5562 13.1668 10.4503 13.1229 10.3721 13.0447C10.294 12.9666 10.2501 12.8606 10.2501 12.7501V11.0834C10.2501 10.9729 10.294 10.8669 10.3721 10.7888C10.4503 10.7106 10.5562 10.6668 10.6667 10.6668C10.7773 10.6668 10.8832 10.7106 10.9614 10.7888C11.0395 10.8669 11.0834 10.9729 11.0834 11.0834V12.7501C11.0834 12.8606 11.0395 12.9666 10.9614 13.0447C10.8832 13.1229 10.7773 13.1668 10.6667 13.1668ZM7.33341 11.9168C7.22291 11.9168 7.11693 11.8729 7.03879 11.7947C6.96065 11.7166 6.91675 11.6106 6.91675 11.5001V9.83342C6.91675 9.72291 6.96065 9.61693 7.03879 9.53879C7.11693 9.46065 7.22291 9.41675 7.33341 9.41675C7.44392 9.41675 7.5499 9.46065 7.62804 9.53879C7.70618 9.61693 7.75008 9.72291 7.75008 9.83342V11.5001C7.75008 11.6106 7.70618 11.7166 7.62804 11.7947C7.5499 11.8729 7.44392 11.9168 7.33341 11.9168ZM14.0001 11.9168C13.8896 11.9168 13.7836 11.8729 13.7055 11.7947C13.6273 11.7166 13.5834 11.6106 13.5834 11.5001V9.83342C13.5834 9.72291 13.6273 9.61693 13.7055 9.53879C13.7836 9.46065 13.8896 9.41675 14.0001 9.41675C14.1106 9.41675 14.2166 9.46065 14.2947 9.53879C14.3728 9.61693 14.4167 9.72291 14.4167 9.83342V11.5001C14.4167 11.6106 14.3728 11.7166 14.2947 11.7947C14.2166 11.8729 14.1106 11.9168 14.0001 11.9168ZM13.5834 5.73758V6.08342C13.5834 6.19392 13.6273 6.29991 13.7055 6.37805C13.7836 6.45619 13.8896 6.50008 14.0001 6.50008C14.1106 6.50008 14.2166 6.45619 14.2947 6.37805C14.3728 6.29991 14.4167 6.19392 14.4167 6.08342V4.83342C14.4167 4.72291 14.3728 4.61693 14.2947 4.53879C14.2166 4.46065 14.1106 4.41675 14.0001 4.41675H12.7501C12.6396 4.41675 12.5336 4.46065 12.4555 4.53879C12.3773 4.61693 12.3334 4.72291 12.3334 4.83342C12.3334 4.94392 12.3773 5.04991 12.4555 5.12805C12.5336 5.20619 12.6396 5.25008 12.7501 5.25008H12.8751L10.9292 6.91675H10.3501L7.93758 5.71258C7.87953 5.68284 7.81531 5.66714 7.75008 5.66675H6.91675C6.82991 5.66731 6.74542 5.69499 6.67508 5.74592L3.75841 7.82925C3.70872 7.85868 3.66568 7.89813 3.63204 7.94508C3.5984 7.99203 3.57489 8.04546 3.563 8.10199C3.55111 8.15851 3.5511 8.21689 3.56297 8.27341C3.57485 8.32994 3.59834 8.38338 3.63197 8.43034C3.6656 8.4773 3.70862 8.51676 3.75831 8.5462C3.808 8.57565 3.86326 8.59445 3.9206 8.6014C3.97794 8.60835 4.0361 8.6033 4.09139 8.58658C4.14667 8.56985 4.19788 8.54182 4.24175 8.50425L7.05008 6.50008H7.65008L10.0626 7.70425C10.1206 7.73399 10.1849 7.74969 10.2501 7.75008H11.0834C11.1827 7.75009 11.2788 7.71463 11.3542 7.65008L13.5834 5.73758ZM0.666748 3.58342H6.69175L7.40425 2.52092C7.44199 2.4636 7.49331 2.41649 7.55364 2.38378C7.61398 2.35107 7.68145 2.33377 7.75008 2.33342H17.2917C17.2078 1.93375 17.0112 1.56649 16.7251 1.27508C16.5313 1.08174 16.3012 0.928502 16.0481 0.82412C15.795 0.719738 15.5239 0.666262 15.2501 0.666751H2.75008C2.19755 0.666751 1.66764 0.886245 1.27694 1.27695C0.886241 1.66765 0.666748 2.19755 0.666748 2.75008V3.58342ZM2.75008 1.91675C2.83249 1.91675 2.91305 1.94119 2.98157 1.98697C3.05009 2.03276 3.10349 2.09783 3.13503 2.17397C3.16657 2.2501 3.17482 2.33388 3.15874 2.41471C3.14266 2.49553 3.10298 2.56977 3.04471 2.62805C2.98644 2.68632 2.91219 2.726 2.83137 2.74208C2.75054 2.75816 2.66677 2.7499 2.59063 2.71837C2.51449 2.68683 2.44942 2.63343 2.40364 2.56491C2.35785 2.49639 2.33341 2.41583 2.33341 2.33342C2.33341 2.22291 2.37731 2.11693 2.45545 2.03879C2.53359 1.96065 2.63957 1.91675 2.75008 1.91675ZM4.41675 1.91675C4.49916 1.91675 4.57972 1.94119 4.64824 1.98697C4.71676 2.03276 4.77016 2.09783 4.8017 2.17397C4.83323 2.2501 4.84149 2.33388 4.82541 2.41471C4.80933 2.49553 4.76965 2.56977 4.71138 2.62805C4.6531 2.68632 4.57886 2.726 4.49804 2.74208C4.41721 2.75816 4.33343 2.7499 4.2573 2.71837C4.18116 2.68683 4.11609 2.63343 4.0703 2.56491C4.02452 2.49639 4.00008 2.41583 4.00008 2.33342C4.00008 2.22291 4.04398 2.11693 4.12212 2.03879C4.20026 1.96065 4.30624 1.91675 4.41675 1.91675ZM6.08341 1.91675C6.16582 1.91675 6.24638 1.94119 6.3149 1.98697C6.38342 2.03276 6.43683 2.09783 6.46836 2.17397C6.4999 2.2501 6.50815 2.33388 6.49207 2.41471C6.476 2.49553 6.43631 2.56977 6.37804 2.62805C6.31977 2.68632 6.24553 2.726 6.1647 2.74208C6.08388 2.75816 6.0001 2.7499 5.92396 2.71837C5.84783 2.68683 5.78275 2.63343 5.73697 2.56491C5.69118 2.49639 5.66675 2.41583 5.66675 2.33342C5.66675 2.22291 5.71065 2.11693 5.78879 2.03879C5.86693 1.96065 5.97291 1.91675 6.08341 1.91675Z" fill="#7ADA46"/>
</svg>
