<svg width="26" height="29" viewBox="0 0 26 29" fill="none" xmlns="http://www.w3.org/2000/svg">
<path fill-rule="evenodd" clip-rule="evenodd" d="M8.04489 16.4C3.60917 16.4 0.000124144 20.0751 8.13481e-10 24.5922V26.9747C-3.12019e-05 28.0859 0.897572 29 1.98874 29H19.0558C20.1469 29 21.0447 28.0859 21.0447 26.9747L21.0448 24.5923C21.045 20.0753 17.4361 16.4 13.0005 16.4H8.04489ZM6.72935 18.9296C6.79017 18.9269 6.85088 18.9272 6.91131 18.9306C7.27386 18.9507 7.62566 19.0793 7.9204 19.3042C8.67151 19.8763 9.5842 20.1851 10.5225 20.1851C11.4609 20.1851 12.3737 19.8762 13.1249 19.3039C13.125 19.3038 13.1251 19.3037 13.1252 19.3036C13.9372 18.686 15.1052 18.8571 15.7133 19.6827C15.7133 19.6828 15.7133 19.6829 15.7134 19.683C16.3223 20.5104 16.1541 21.7027 15.3411 22.3222C13.9501 23.3819 12.2596 23.9544 10.5226 23.9544C8.78557 23.9544 7.09483 23.3819 5.70387 22.3222C4.89091 21.7028 4.72274 20.5107 5.33148 19.6832C5.33153 19.6831 5.33153 19.683 5.33159 19.683C5.62469 19.2841 6.06159 19.0193 6.54567 18.9473C6.54607 18.9472 6.54646 18.9471 6.54686 18.9471C6.60761 18.9382 6.66853 18.9323 6.72935 18.9296Z" fill="#999999"/>
<path fill-rule="evenodd" clip-rule="evenodd" d="M10.5223 2.52319C7.41356 2.52319 4.95508 5.38854 4.95508 8.82314C4.95508 12.2577 7.41356 15.1232 10.5223 15.1232C13.6309 15.1232 16.0893 12.2577 16.0893 8.82314C16.0893 5.38854 13.6309 2.52319 10.5223 2.52319Z" fill="#999999"/>
<path fill-rule="evenodd" clip-rule="evenodd" d="M15.4778 13.877C15.3155 13.877 15.1599 13.9426 15.0452 14.0594C14.9304 14.1763 14.866 14.3348 14.866 14.5C14.866 14.6652 14.9304 14.8237 15.0452 14.9406C15.1599 15.0574 15.3155 15.1231 15.4778 15.1231H17.9556C21.7299 15.1231 24.7764 18.2256 24.7763 22.0692L24.7762 24.4516C24.7761 24.8893 24.4408 25.2308 24.011 25.2308H22.9101C22.7478 25.2308 22.5922 25.2965 22.4775 25.4133C22.3627 25.5302 22.2983 25.6887 22.2983 25.8539C22.2983 26.0191 22.3627 26.1776 22.4775 26.2945C22.5922 26.4113 22.7478 26.4769 22.9101 26.4769H24.011C25.1021 26.4769 25.9998 25.5629 25.9998 24.4517L25.9999 22.0692C26.0001 17.5521 22.3912 13.8769 17.9556 13.877H15.4778Z" fill="#999999"/>
<path fill-rule="evenodd" clip-rule="evenodd" d="M15.4776 0C14.4856 1.58594e-06 13.5122 0.300858 12.6631 0.863438C12.5957 0.908062 12.5376 0.96576 12.4922 1.03324C12.4467 1.10072 12.4148 1.17665 12.3981 1.25671C12.3815 1.33676 12.3805 1.41937 12.3952 1.49982C12.41 1.58026 12.4401 1.65697 12.4839 1.72555C12.5724 1.86404 12.7113 1.96107 12.8701 1.99528C13.0288 2.02949 13.1944 1.99808 13.3304 1.90797C13.9894 1.47135 14.7275 1.2461 15.4776 1.24609C17.8423 1.24609 19.821 3.46402 19.821 6.29994C19.821 8.13299 18.9608 9.8102 17.618 10.6962C17.4819 10.7861 17.3863 10.9273 17.3524 11.0889C17.3185 11.2505 17.3491 11.4192 17.4373 11.5579C17.5255 11.6966 17.6642 11.7939 17.8229 11.8284C17.9816 11.8629 18.1472 11.8318 18.2834 11.742C20.0119 10.6014 21.0446 8.52734 21.0446 6.29994C21.0446 2.86539 18.5862 -1.69922e-07 15.4776 0Z" fill="#999999"/>
</svg>
