<svg width="7" height="7" viewBox="0 0 7 7" fill="none" xmlns="http://www.w3.org/2000/svg">
<path d="M7 3.5C7 5.433 5.433 7 3.5 7C1.567 7 0 5.433 0 3.5C0 1.567 1.567 0 3.5 0C5.433 0 7 1.567 7 3.5Z" fill="#ABABAB"/>
<path d="M3.20462 5.44443V2.95554H3.68123V5.44443H3.20462ZM3.44531 2.57151C3.36242 2.57151 3.29122 2.54343 3.23171 2.48725C3.17327 2.43 3.14404 2.36195 3.14404 2.28309C3.14404 2.20315 3.17327 2.13509 3.23171 2.07892C3.29122 2.02167 3.36242 1.99304 3.44531 1.99304C3.5282 1.99304 3.59887 2.02167 3.65732 2.07892C3.71683 2.13509 3.74658 2.20315 3.74658 2.28309C3.74658 2.36195 3.71683 2.43 3.65732 2.48725C3.59887 2.54343 3.5282 2.57151 3.44531 2.57151Z" fill="#333333"/>
</svg>
