<svg width="20" height="16" viewBox="0 0 20 16" fill="none" xmlns="http://www.w3.org/2000/svg">
<path d="M19.7793 4.03816L19.7762 4.00818C19.675 3.03871 19.2425 2.1334 18.5511 1.44415C17.8597 0.754899 16.9515 0.323637 15.9789 0.22272C14.5535 0.074759 12.2047 0 10 0C7.79531 0 5.44648 0.074759 4.02109 0.22272C3.04851 0.323637 2.14033 0.754899 1.44893 1.44415C0.757529 2.1334 0.324971 3.03871 0.223828 4.00818L0.220703 4.03777C0.0972656 5.21717 0 5.4064 0 7.89409C0 10.3818 0.0972656 10.7828 0.220703 11.9622L0.223828 11.9918C0.324844 12.9613 0.757371 13.8666 1.44881 14.5558C2.14024 15.2451 3.04849 15.6762 4.02109 15.7769C5.44648 15.9249 7.79531 16 10 16C12.2047 16 14.5535 15.9252 15.9785 15.7769C16.9512 15.6763 17.8595 15.2452 18.551 14.556C19.2426 13.8667 19.6751 12.9614 19.7762 11.9918L19.7793 11.9618C19.9027 10.7824 20 10.381 20 7.89409C20 5.40718 19.9027 5.21756 19.7793 4.03816ZM5.55 3.32483C5.9992 3.32445 6.43843 3.45688 6.81211 3.70537C7.18579 3.95386 7.47713 4.30724 7.64929 4.72081C7.82144 5.13438 7.86666 5.58956 7.77923 6.02876C7.69181 6.46796 7.47566 6.87144 7.15814 7.18816C6.84061 7.50488 6.43598 7.72062 5.99542 7.80806C5.55487 7.89551 5.0982 7.85075 4.68317 7.67943C4.26815 7.50812 3.91343 7.21795 3.66388 6.84564C3.41433 6.47333 3.28117 6.03561 3.28125 5.58785C3.28125 4.98793 3.52023 4.41256 3.94566 3.98821C4.37109 3.56385 4.94815 3.32524 5.55 3.32483ZM9.33906 11.0507V11.0605C9.30073 11.3939 9.16039 11.7075 8.93711 11.9587C8.71759 12.2145 8.42138 12.3932 8.09219 12.4684C7.62344 12.5739 6.45586 12.6779 5.72656 12.6732C4.99766 12.6911 3.56562 12.5782 3.09727 12.4672C2.76802 12.3922 2.47175 12.2135 2.25234 11.9576C2.02913 11.7064 1.8888 11.393 1.85039 11.0597V11.0495C1.82611 10.8092 1.81867 10.5675 1.82812 10.3261C1.81865 10.126 1.8261 9.92537 1.85039 9.72647V9.71673C1.8845 9.39933 2.02695 9.10324 2.25391 8.87803C2.48201 8.65053 2.7809 8.50705 3.10156 8.47114C3.57031 8.42169 5 8.39326 5.72617 8.39326C6.45234 8.39326 7.61836 8.42013 8.08789 8.47114C8.40864 8.50704 8.70758 8.65067 8.93555 8.87842C9.16135 9.10408 9.30268 9.40012 9.33594 9.71712V9.72686C9.35933 9.92562 9.37107 10.1256 9.37109 10.3257C9.37296 10.5678 9.36201 10.8098 9.33828 11.0507H9.33906ZM14.4141 10.3608H11.7551C11.6409 10.3608 11.5278 10.3383 11.4223 10.2948C11.3168 10.2512 11.221 10.1874 11.1402 10.1069C11.0595 10.0264 10.9954 9.93086 10.9517 9.8257C10.908 9.72054 10.8855 9.60783 10.8855 9.49401C10.8855 9.38019 10.908 9.26748 10.9517 9.16233C10.9954 9.05717 11.0595 8.96162 11.1402 8.88114C11.221 8.80065 11.3168 8.73681 11.4223 8.69325C11.5278 8.64969 11.6409 8.62727 11.7551 8.62727H14.4141C14.6447 8.62727 14.8658 8.71859 15.0289 8.88114C15.192 9.04368 15.2836 9.26414 15.2836 9.49401C15.2836 9.72389 15.192 9.94435 15.0289 10.1069C14.8658 10.2694 14.6447 10.3608 14.4141 10.3608ZM17.0453 7.37273H11.7551C11.5276 7.36792 11.3111 7.27447 11.1519 7.11241C10.9927 6.95036 10.9036 6.73259 10.9036 6.50579C10.9036 6.279 10.9927 6.06123 11.1519 5.89917C11.3111 5.73711 11.5276 5.64367 11.7551 5.63886H17.0449C17.2724 5.64367 17.4889 5.73711 17.6481 5.89917C17.8073 6.06123 17.8964 6.279 17.8964 6.50579C17.8964 6.73259 17.8073 6.95036 17.6481 7.11241C17.4889 7.27447 17.2724 7.36792 17.0449 7.37273H17.0453Z" fill="#7ADA46"/>
</svg>
