<svg width="26" height="30" viewBox="0 0 26 30" fill="none" xmlns="http://www.w3.org/2000/svg">
<path d="M25.5503 28.5782C24.7286 24.3298 21.614 20.8887 19.1095 18.7342C18.9627 18.6897 18.8182 18.6374 18.6765 18.5778C18.7054 18.6399 18.73 18.704 18.7504 18.7696C20.4134 21.2923 22.4948 25.1219 23.0508 28.9263C23.2623 30.5762 25.8357 30.218 25.5503 28.5782Z" fill="#999999"/>
<path d="M12.5458 11.7411C12.5458 11.7411 17.6286 16.9683 17.7171 17.0339C21.1959 20.3236 25.7029 15.5202 22.1848 12.0135C22.1497 11.9779 22.1219 11.9354 22.1028 11.8887C22.0838 11.8419 22.074 11.7917 22.074 11.7411C22.074 11.6904 22.0838 11.6402 22.1028 11.5935C22.1219 11.5467 22.1497 11.5043 22.1848 11.4686C24.7336 8.83985 23.1345 5.47445 20.2413 5.3584C19.7222 5.37706 19.212 5.50182 18.7405 5.72535C18.269 5.94889 17.8458 6.2667 17.4957 6.66016L12.5458 11.7411Z" fill="#999999"/>
<path d="M7.05948 17.372C3.51681 21.0553 8.14689 25.8132 11.7437 22.1754C11.8154 22.1036 11.9116 22.0634 12.0118 22.0634C12.1121 22.0634 12.2083 22.1036 12.28 22.1754C15.1683 25.2279 19.1046 22.4075 18.0615 19.0875C17.9228 18.694 17.7289 18.3235 17.4858 17.9875C17.3284 17.7698 17.1557 17.564 16.9691 17.372L12.0143 12.2911L7.05948 17.372Z" fill="#999999"/>
<path d="M1.51425 6.32714C0.407164 7.48763 0.00369358 9.58659 1.83408 11.4686C1.87042 11.5035 1.8994 11.5457 1.9192 11.5926C1.93901 11.6394 1.94923 11.69 1.94923 11.7411C1.94923 11.7921 1.93901 11.8427 1.9192 11.8895C1.8994 11.9364 1.87042 11.9786 1.83408 12.0135C0.00369358 13.8955 0.407164 15.9945 1.51425 17.155C1.81056 17.4619 2.16299 17.7059 2.55137 17.873C2.93975 18.0401 3.35645 18.127 3.77763 18.1288C4.29672 18.1075 4.80658 17.9811 5.27781 17.7568C5.74903 17.5325 6.1723 17.2148 6.5232 16.822L11.478 11.7411L6.5232 6.66015C4.69282 4.78319 2.64102 5.17675 1.51425 6.32714Z" fill="#999999"/>
<path d="M5.89341 2.46224C5.56866 3.7085 5.98197 5.01026 7.05954 6.1102L12.0144 11.1911L16.9692 6.1102C18.7996 4.23324 18.4207 2.13428 17.289 0.973798C16.6903 0.354367 15.8762 0.00410058 15.0256 0C14.5062 0.0193092 13.9957 0.144856 13.5242 0.369267C13.0528 0.593679 12.6298 0.912431 12.2801 1.30681C12.2449 1.34296 12.2031 1.37165 12.1571 1.39122C12.111 1.41079 12.0617 1.42086 12.0119 1.42086C11.9621 1.42086 11.9128 1.41079 11.8667 1.39122C11.8207 1.37165 11.7789 1.34296 11.7437 1.30681C10.6711 0.201823 9.40656 -0.206869 8.19123 0.111003C7.64118 0.262686 7.13953 0.559623 6.73634 0.972189C6.33315 1.38476 6.04251 1.89853 5.89341 2.46224Z" fill="#999999"/>
</svg>
