<svg width="16" height="16" viewBox="0 0 16 16" fill="none" xmlns="http://www.w3.org/2000/svg">
<path fill-rule="evenodd" clip-rule="evenodd" d="M9.48298 1.18543C9.12867 -0.395145 6.8761 -0.395144 6.52179 1.18543C6.2921 2.21006 5.11576 2.69703 4.22878 2.13499C2.86082 1.26817 1.26751 2.86027 2.13473 4.22798C2.69702 5.11478 2.20992 6.2909 1.18527 6.52044C-0.395091 6.87447 -0.395092 9.12676 1.18527 9.48079C2.20992 9.71034 2.69702 10.8865 2.13473 11.7733C1.26751 13.141 2.86082 14.7331 4.22878 13.8662C5.11576 13.3042 6.2921 13.7912 6.52179 14.8158C6.8761 16.3964 9.12867 16.3964 9.48298 14.8158C9.71266 13.7912 10.889 13.3042 11.776 13.8662C13.1439 14.7331 14.7373 13.141 13.87 11.7733C13.3077 10.8865 13.7948 9.71034 14.8195 9.4808C16.3999 9.12676 16.3999 6.87447 14.8195 6.52044C13.7948 6.2909 13.3077 5.11478 13.87 4.22798C14.7373 2.86027 13.1439 1.26817 11.776 2.13499C10.889 2.69703 9.71266 2.21006 9.48298 1.18543ZM8.00241 10.0341C9.12576 10.0341 10.0364 9.12369 10.0364 8.0007C10.0364 6.87771 9.12576 5.96735 8.00241 5.96735C6.87906 5.96735 5.96841 6.87771 5.96841 8.0007C5.96841 9.12369 6.87906 10.0341 8.00241 10.0341Z" fill="white"/>
</svg>
