<svg width="21" height="28" viewBox="0 0 21 28" fill="none" xmlns="http://www.w3.org/2000/svg">
<path d="M20.292 2.36239C19.8348 1.897 19.2266 1.64062 18.5796 1.64062H17.5057V2.73438C17.5057 3.94056 16.5405 4.92188 15.3542 4.92188H5.67264C4.4863 4.92188 3.52116 3.94056 3.52116 2.73438V1.64062H2.44365C1.11052 1.64062 0.0247709 2.74334 0.0232632 4.09883L1.69003e-06 25.5363C-0.000752156 26.1942 0.25071 26.8128 0.707917 27.2782C1.16523 27.7437 1.77337 28 2.42039 28H18.5563C19.8894 28 20.9752 26.8973 20.9767 25.5418L21 4.1043C21.0008 3.44646 20.7493 2.82784 20.292 2.36239ZM10.7743 9.84375H16.5064C16.952 9.84375 17.3132 10.211 17.3132 10.6641C17.3132 11.1171 16.952 11.4844 16.5064 11.4844H10.7743C10.3287 11.4844 9.96751 11.1171 9.96751 10.6641C9.96751 10.211 10.3287 9.84375 10.7743 9.84375ZM10.7743 15.3125H16.5064C16.952 15.3125 17.3132 15.6798 17.3132 16.1328C17.3132 16.5858 16.952 16.9531 16.5064 16.9531H10.7743C10.3287 16.9531 9.96751 16.5858 9.96751 16.1328C9.96751 15.6798 10.3287 15.3125 10.7743 15.3125ZM10.7743 20.7813H16.5294C16.975 20.7813 17.3362 21.1485 17.3362 21.6016C17.3362 22.0546 16.975 22.4219 16.5294 22.4219H10.7743C10.3287 22.4219 9.96751 22.0546 9.96751 21.6016C9.96751 21.1485 10.3287 20.7813 10.7743 20.7813ZM3.90013 9.87613C4.21524 9.55577 4.72602 9.55577 5.04113 9.87613L5.47982 10.3222L7.34042 8.43046C7.65552 8.11016 8.16631 8.11005 8.48136 8.43046C8.79642 8.75077 8.79642 9.27019 8.48136 9.59055L6.05026 12.0623C5.89895 12.2161 5.69375 12.3026 5.47976 12.3026C5.26578 12.3026 5.06057 12.2162 4.90926 12.0623L3.90008 11.0362C3.58502 10.7159 3.58502 10.1964 3.90013 9.87613ZM3.90013 15.7625C4.21524 15.4422 4.72602 15.4422 5.04113 15.7625L5.47982 16.2086L7.34042 14.3168C7.65547 13.9965 8.16631 13.9965 8.48136 14.3168C8.79642 14.6371 8.79642 15.1565 8.48136 15.4769L6.05026 17.9487C5.89901 18.1025 5.69375 18.189 5.47976 18.189C5.26578 18.189 5.06057 18.1026 4.90926 17.9487L3.90008 16.9226C3.58502 16.6023 3.58502 16.0829 3.90013 15.7625ZM3.90013 21.2313C4.21524 20.9109 4.72602 20.9109 5.04113 21.2313L5.47982 21.6773L7.34042 19.7856C7.65547 19.4653 8.16631 19.4653 8.48136 19.7856C8.79642 20.1059 8.79642 20.6253 8.48136 20.9456L6.05026 23.4175C5.89901 23.5713 5.69375 23.6578 5.47976 23.6578C5.26578 23.6578 5.06057 23.5714 4.90926 23.4175L3.90008 22.3913C3.58502 22.071 3.58502 21.5516 3.90013 21.2313Z" fill="#999999"/>
<path d="M5.13477 2.73438C5.13477 3.03641 5.37557 3.28125 5.67264 3.28125H15.3542C15.6512 3.28125 15.892 3.03641 15.892 2.73438V0.546875C15.892 0.244836 15.6512 0 15.3542 0H5.67264C5.37557 0 5.13477 0.244836 5.13477 0.546875V2.73438Z" fill="#999999"/>
</svg>
