<svg width="42" height="42" viewBox="0 0 42 42" fill="none" xmlns="http://www.w3.org/2000/svg">
<path d="M20.3252 41.9995L16.5518 40.1211V38.5933L20.3252 40.4664V41.9995Z" fill="#B7B3A9"/>
<path d="M24.4875 39.933L20.3252 41.9997V40.4667L24.4875 38.3999V39.933Z" fill="#D1CEC4"/>
<path d="M20.3252 40.4664L16.5518 38.5932L20.708 36.5212L24.4874 38.3996L20.3252 40.4664Z" fill="#EAE6DA"/>
<path d="M22.4702 37.4582V38.5727L22.6513 38.4837V37.364L22.4702 37.4582Z" fill="#48484D"/>
<path d="M22.4582 36.6519C22.3488 36.4426 22.2029 36.2438 22.0328 36.0764C21.887 35.9351 21.7229 35.8147 21.5528 35.7258C21.2429 35.5741 20.9634 35.5584 20.7629 35.6578L20.5806 35.7467C20.7811 35.6473 21.0606 35.663 21.3705 35.8147C21.5406 35.8985 21.7047 36.024 21.8505 36.1653C22.0207 36.3327 22.1726 36.5316 22.2759 36.7409C22.3974 36.9763 22.4703 37.2275 22.4703 37.4577L22.6526 37.3687C22.6526 37.1385 22.5797 36.8874 22.4582 36.6519Z" fill="#5F5F64"/>
<path d="M21.3708 35.8098C20.757 35.5063 20.2649 35.747 20.2588 36.354V37.4684L22.4706 38.5672V37.4527C22.4706 36.8458 21.9784 36.1133 21.3708 35.8098Z" fill="#3B3B3F"/>
<path style="mix-blend-mode:screen" d="M22.0329 36.0713L21.8506 36.1602C22.0207 36.3277 22.1726 36.5265 22.2759 36.7358L22.4582 36.6468C22.3488 36.4375 22.203 36.2387 22.0329 36.0713Z" fill="url(#paint0_linear_867_12818)"/>
<path d="M20.958 23.9535L22.1976 23.3308V38.3736L20.958 38.9963V23.9535Z" fill="#48484D"/>
<path d="M21.9843 22.5459C21.8628 22.3157 21.7048 22.0907 21.5104 21.9023C21.3463 21.7454 21.1701 21.6093 20.9757 21.5151C20.6354 21.3477 20.3255 21.332 20.1068 21.4419L18.8672 22.0593C19.092 21.9494 19.3958 21.9651 19.7361 22.1325C19.9305 22.2267 20.1068 22.3628 20.2708 22.5197C20.4592 22.7081 20.6232 22.9279 20.7448 23.1633C20.8785 23.4249 20.9574 23.697 20.9574 23.9534L22.197 23.336C22.197 23.0848 22.118 22.8075 21.9843 22.5459Z" fill="#5F5F64"/>
<path style="mix-blend-mode:screen" d="M20.2764 22.5198L21.5159 21.9023C21.7043 22.0907 21.8684 22.3105 21.9899 22.5459L20.7503 23.1633C20.6288 22.9331 20.4708 22.7081 20.2764 22.5198Z" fill="url(#paint1_linear_867_12818)"/>
<path d="M19.7416 22.1327C20.4161 22.4675 20.9629 23.2838 20.9629 23.9483V38.9911L18.5142 37.7772V22.7344C18.5142 22.0646 19.0671 21.7978 19.7416 22.1327Z" fill="#39393D"/>
<path d="M20.52 38.4259V39.5403L20.6951 39.4514V38.3369L20.52 38.4259Z" fill="#48484D"/>
<path d="M20.5084 37.6199C20.3991 37.4106 20.2532 37.2118 20.0831 37.0444C19.9373 36.9031 19.7732 36.7828 19.6031 36.6938C19.2932 36.5421 19.0137 36.5264 18.8131 36.6258L18.6309 36.7147C18.8314 36.6153 19.1109 36.631 19.4208 36.7828C19.5909 36.8665 19.755 36.992 19.9008 37.1333C20.0709 37.3008 20.2229 37.4996 20.3262 37.7089C20.4477 37.9443 20.5206 38.1955 20.5206 38.4257L20.7029 38.3367C20.7029 38.1065 20.63 37.8554 20.5084 37.6199Z" fill="#5F5F64"/>
<path d="M19.4196 36.7829C18.8059 36.4795 18.3137 36.7201 18.3076 37.3271V38.4416L20.5194 39.5404V38.4259C20.5194 37.8189 20.0272 37.0864 19.4196 36.7829Z" fill="#3B3B3F"/>
<path style="mix-blend-mode:screen" d="M20.0832 37.0444L19.9009 37.1334C20.071 37.3008 20.2229 37.4996 20.3262 37.7089L20.5085 37.62C20.3991 37.4107 20.2533 37.2119 20.0832 37.0444Z" fill="url(#paint2_linear_867_12818)"/>
<path d="M19.7972 38.0232C19.7972 38.2744 19.5967 38.3738 19.3415 38.2482C19.0863 38.1226 18.8857 37.8192 18.8857 37.5732C18.8857 37.3273 19.0863 37.2227 19.3415 37.3483C19.5967 37.4738 19.7972 37.7773 19.7972 38.0232Z" fill="#5F5F64"/>
<path d="M18.588 25.4656L17.3363 25.361L14.5776 17.5334L15.8294 17.6329L18.588 25.4656Z" fill="#39393D"/>
<path d="M15.8294 17.6329L14.5776 17.5335L20.9274 14.4988L22.1791 14.6034L15.8294 17.6329Z" fill="#3F3F42"/>
<path d="M22.1789 14.603L24.9375 22.4305L18.5878 25.4653L15.8291 17.6325L22.1789 14.603Z" fill="#48484D"/>
<path d="M25.9218 27.3489L25.0408 27.2913L21.6016 17.8052L22.4826 17.8627L25.9218 27.3489Z" fill="#CECECE"/>
<path d="M22.4826 17.8629L21.6016 17.8054L37.6795 9.81567L38.5606 9.87323L22.4826 17.8629Z" fill="#E0E0E0"/>
<path d="M38.5609 9.87378L42.0001 19.3547L25.9221 27.3496L22.4829 17.8635L38.5609 9.87378Z" fill="#ECECEC"/>
<path d="M26.524 26.4438L26.1594 26.3026L25.6187 24.8427L25.7888 24.4399L27.235 23.7283L27.5995 23.8643L28.1403 25.3294L27.9763 25.727L26.524 26.4438Z" fill="#2F6472"/>
<path opacity="0.7" d="M25.7876 24.4399L25.8666 24.398L26.6079 26.402L26.5289 26.4438L25.7876 24.4399ZM27.9751 25.727L27.2398 23.7283L27.1608 23.7649L27.9022 25.7689L27.9812 25.7322L27.9751 25.727Z" fill="#8DBFC6"/>
<path d="M25.7213 24.2728L25.3567 24.1315L24.8159 22.6665L24.9861 22.2688L26.4322 21.552L26.8029 21.6933L27.3376 23.1583L27.1735 23.556L25.7213 24.2728Z" fill="#2F6472"/>
<path opacity="0.7" d="M24.9854 22.2688L25.0643 22.227L25.8057 24.2309L25.7267 24.2728L24.9854 22.2688ZM27.1728 23.5507L26.4376 21.552L26.3586 21.5886L27.0999 23.5926L27.1789 23.556L27.1728 23.5507Z" fill="#8DBFC6"/>
<path d="M24.92 22.0959L24.5554 21.9599L24.0146 20.4948L24.1848 20.092L25.631 19.3804L26.0016 19.5216L26.5363 20.9815L26.3723 21.3843L24.92 22.0959Z" fill="#2F6472"/>
<path opacity="0.7" d="M24.1836 20.092L24.2626 20.0501L25.0039 22.0541L24.9249 22.0959L24.1836 20.092ZM26.3711 21.3791L25.6358 19.3804L25.5568 19.417L26.2982 21.421L26.3771 21.3843L26.3711 21.3791Z" fill="#8DBFC6"/>
<path d="M24.1171 19.9245L23.7525 19.7833L23.2178 18.3235L23.3818 17.9206L24.8341 17.209L25.1987 17.345L25.7334 18.8101L25.5693 19.213L24.1171 19.9245Z" fill="#2F6472"/>
<path opacity="0.7" d="M23.3823 17.9206L23.4613 17.8787L24.2026 19.8827L24.1236 19.9245L23.3823 17.9206ZM25.5698 19.2077L24.8346 17.209L24.7556 17.2456L25.4969 19.2496L25.5759 19.213L25.5698 19.2077Z" fill="#8DBFC6"/>
<path d="M28.7047 25.3718L28.3401 25.2305L27.7993 23.7707L27.9634 23.3678L29.4156 22.6562L29.7802 22.7923L30.321 24.2573L30.1569 24.655L28.7047 25.3718Z" fill="#2F6472"/>
<path opacity="0.7" d="M27.9634 23.3678L28.0424 23.326L28.7837 25.3299L28.7047 25.3718L27.9634 23.3678ZM30.1569 24.655L29.4217 22.6562L29.3427 22.6929L30.084 24.6968L30.163 24.6602L30.1569 24.655Z" fill="#8DBFC6"/>
<path d="M27.9034 23.2L27.5388 23.0588L26.998 21.5937L27.1621 21.1961L28.6143 20.4792L28.9789 20.6205L29.5197 22.0856L29.3557 22.4832L27.9034 23.2Z" fill="#2F6472"/>
<path opacity="0.7" d="M27.1616 21.1962L27.2406 21.1544L27.9819 23.1583L27.9029 23.2002L27.1616 21.1962ZM29.3552 22.4834L28.6199 20.4846L28.5409 20.5212L29.2823 22.5252L29.3613 22.4886L29.3552 22.4834Z" fill="#8DBFC6"/>
<path d="M27.1002 21.0237L26.7356 20.8876L26.1948 19.4226L26.3589 19.0249L27.8111 18.3081L28.1757 18.4494L28.7165 19.9092L28.5524 20.3121L27.1002 21.0237Z" fill="#2F6472"/>
<path opacity="0.7" d="M26.3594 19.0197L26.4384 18.9778L27.1797 20.9818L27.1007 21.0237L26.3594 19.0197ZM28.5529 20.3068L27.8177 18.3081L27.7387 18.3447L28.48 20.3487L28.559 20.3121L28.5529 20.3068Z" fill="#8DBFC6"/>
<path d="M26.2984 18.852L25.9339 18.7108L25.3931 17.251L25.5571 16.8481L27.0094 16.1365L27.3739 16.2725L27.9147 17.7376L27.7507 18.1404L26.2984 18.852Z" fill="#2F6472"/>
<path opacity="0.7" d="M25.5625 16.8481L25.6415 16.8062L26.3828 18.8102L26.3038 18.852L25.5625 16.8481ZM27.75 18.1352L27.0147 16.1365L26.9358 16.1731L27.6771 18.1771L27.7561 18.1404L27.75 18.1352Z" fill="#8DBFC6"/>
<path d="M30.8793 24.2988L30.5147 24.1575L29.98 22.6977L30.144 22.2948L31.5963 21.5833L31.9609 21.7193L32.5017 23.1843L32.3315 23.5872L30.8793 24.2988Z" fill="#2F6472"/>
<path opacity="0.7" d="M30.145 22.2948L30.224 22.253L30.9653 24.257L30.8863 24.2988L30.145 22.2948ZM32.3325 23.582L31.5973 21.5833L31.5183 21.6199L32.2596 23.6238L32.3386 23.5872L32.3325 23.582Z" fill="#8DBFC6"/>
<path d="M30.0836 22.1273L29.7129 21.986L29.1782 20.521L29.3423 20.1233L30.7945 19.4065L31.1591 19.5478L31.6999 21.0128L31.5298 21.4105L30.0836 22.1273Z" fill="#2F6472"/>
<path opacity="0.7" d="M29.3433 20.1232L29.4223 20.0814L30.1636 22.0853L30.0846 22.1272L29.3433 20.1232ZM31.5307 21.4104L30.7955 19.4116L30.7165 19.4482L31.4578 21.4522L31.5368 21.4156L31.5307 21.4104Z" fill="#8DBFC6"/>
<path d="M29.2818 19.9504L28.9112 19.8144L28.3765 18.3493L28.5405 17.9517L29.9928 17.2349L30.3573 17.3761L30.8981 18.8359L30.728 19.2388L29.2818 19.9504Z" fill="#2F6472"/>
<path opacity="0.7" d="M28.5405 17.9517L28.6195 17.9098L29.3608 19.9138L29.2818 19.9557L28.5405 17.9517ZM30.7341 19.2336L29.9988 17.2349L29.9199 17.2715L30.6612 19.2755L30.7402 19.2388L30.7341 19.2336Z" fill="#8DBFC6"/>
<path d="M28.4796 17.7793L28.115 17.6432L27.5742 16.1782L27.7383 15.7753L29.1905 15.0637L29.5551 15.1998L30.0959 16.6648L29.9258 17.0677L28.4796 17.7793Z" fill="#2F6472"/>
<path opacity="0.7" d="M27.7383 15.7753L27.8173 15.7335L28.5586 17.7374L28.4796 17.7793L27.7383 15.7753ZM29.9318 17.0625L29.1966 15.0637L29.1176 15.1003L29.8589 17.1043L29.9379 17.0677L29.9318 17.0625Z" fill="#8DBFC6"/>
<path d="M33.0616 23.2261L32.697 23.0848L32.1562 21.625L32.3203 21.2221L33.7726 20.5105L34.1371 20.6465L34.6779 22.1116L34.5139 22.5145L33.0616 23.2261Z" fill="#2F6472"/>
<path opacity="0.7" d="M32.3257 21.2221L32.4047 21.1802L33.146 23.1842L33.067 23.2261L32.3257 21.2221ZM34.5132 22.5092L33.7779 20.5105L33.6989 20.5471L34.4402 22.5511L34.5192 22.5145L34.5132 22.5092Z" fill="#8DBFC6"/>
<path d="M32.2594 21.0549L31.8948 20.9136L31.354 19.4486L31.5181 19.0509L32.9703 18.3394L33.3349 18.4754L33.8757 19.9404L33.7116 20.3381L32.2594 21.0549Z" fill="#2F6472"/>
<path opacity="0.7" d="M31.5249 19.0509L31.6039 19.0091L32.3452 21.0131L32.2662 21.0549L31.5249 19.0509ZM33.7124 20.3381L32.9771 18.3394L32.8982 18.376L33.6395 20.3799L33.7185 20.3433L33.7124 20.3381Z" fill="#8DBFC6"/>
<path d="M31.4571 18.8782L31.0926 18.7421L30.5518 17.2771L30.7158 16.8794L32.1681 16.1626L32.5326 16.3039L33.0734 17.7637L32.9094 18.1666L31.4571 18.8782Z" fill="#2F6472"/>
<path opacity="0.7" d="M30.7222 16.8794L30.8012 16.8376L31.5425 18.8415L31.4635 18.8834L30.7222 16.8794ZM32.9096 18.1613L32.1744 16.1626L32.0954 16.1992L32.8367 18.2032L32.9157 18.1666L32.9096 18.1613Z" fill="#8DBFC6"/>
<path d="M30.6549 16.7065L30.2903 16.5705L29.7495 15.1054L29.9197 14.7026L31.3658 13.991L31.7304 14.1322L32.2712 15.592L32.1071 15.9949L30.6549 16.7065Z" fill="#2F6472"/>
<path opacity="0.7" d="M29.9194 14.7026L29.9984 14.6607L30.7397 16.6647L30.6607 16.7065L29.9194 14.7026ZM32.1069 15.9897L31.3717 13.991L31.2927 14.0276L32.034 16.0316L32.113 15.9949L32.1069 15.9897Z" fill="#8DBFC6"/>
<path d="M35.2423 22.1538L34.8777 22.0178L34.3369 20.5527L34.501 20.1498L35.9532 19.4382L36.3178 19.5743L36.8586 21.0393L36.6885 21.4422L35.2423 22.1538Z" fill="#2F6472"/>
<path opacity="0.7" d="M34.502 20.1498L34.5809 20.108L35.3223 22.1119L35.2433 22.1538L34.502 20.1498ZM36.6955 21.437L35.9603 19.4382L35.8813 19.4749L36.6226 21.4788L36.7016 21.4422L36.6955 21.437Z" fill="#8DBFC6"/>
<path d="M34.4405 19.9822L34.076 19.8409L33.5352 18.3811L33.6992 17.9782L35.1515 17.2666L35.516 17.4026L36.0568 18.8677L35.8867 19.2653L34.4405 19.9822Z" fill="#2F6472"/>
<path opacity="0.7" d="M33.6992 17.9782L33.7782 17.9363L34.5195 19.9403L34.4405 19.9822L33.6992 17.9782ZM35.8928 19.2653L35.1575 17.2666L35.0785 17.3032L35.8199 19.3072L35.8989 19.2706L35.8928 19.2653Z" fill="#8DBFC6"/>
<path d="M33.6378 17.8106L33.2732 17.6694L32.7324 16.2043L32.8965 15.8067L34.3487 15.0898L34.7133 15.2311L35.2541 16.6962L35.084 17.0938L33.6378 17.8106Z" fill="#2F6472"/>
<path opacity="0.7" d="M32.8979 15.8067L32.9769 15.7648L33.7183 17.7688L33.6393 17.8106L32.8979 15.8067ZM35.0915 17.0886L34.3563 15.0898L34.2773 15.1265L35.0186 17.1304L35.0976 17.0938L35.0915 17.0886Z" fill="#8DBFC6"/>
<path d="M32.8365 15.6345L32.4719 15.4985L31.9312 14.0334L32.0952 13.6305L33.5475 12.9189L33.912 13.0602L34.4528 14.52L34.2827 14.9229L32.8365 15.6345Z" fill="#2F6472"/>
<path opacity="0.7" d="M32.0952 13.6305L32.1742 13.5887L32.9155 15.5926L32.8365 15.6345L32.0952 13.6305ZM34.2888 14.9177L33.5535 12.9189L33.4745 12.9556L34.2159 14.9595L34.2948 14.9229L34.2888 14.9177Z" fill="#8DBFC6"/>
<path d="M37.4186 21.081L37.054 20.945L36.5132 19.48L36.6833 19.0771L38.1295 18.3655L38.4941 18.5068L39.0349 19.9666L38.8708 20.3694L37.4186 21.081Z" fill="#2F6472"/>
<path opacity="0.7" d="M36.6836 19.0771L36.7626 19.0352L37.5039 21.0392L37.4249 21.081L36.6836 19.0771ZM38.8711 20.3642L38.1358 18.3655L38.0568 18.4021L38.7982 20.4061L38.8771 20.3694L38.8711 20.3642Z" fill="#8DBFC6"/>
<path d="M36.6158 18.9096L36.2512 18.7684L35.7104 17.3086L35.8806 16.9057L37.3268 16.1941L37.6913 16.3301L38.2321 17.7952L38.0681 18.1928L36.6158 18.9096Z" fill="#2F6472"/>
<path opacity="0.7" d="M35.8813 16.9057L35.9603 16.8638L36.7017 18.8678L36.6227 18.9096L35.8813 16.9057ZM38.0688 18.1928L37.3336 16.1941L37.2546 16.2307L37.9959 18.2347L38.0749 18.1981L38.0688 18.1928Z" fill="#8DBFC6"/>
<path d="M35.8136 16.7381L35.449 16.5969L34.9082 15.1318L35.0783 14.7342L36.5245 14.0173L36.8891 14.1586L37.4299 15.6236L37.2658 16.0213L35.8136 16.7381Z" fill="#2F6472"/>
<path opacity="0.7" d="M35.0781 14.7345L35.1571 14.6927L35.8984 16.6966L35.8194 16.7385L35.0781 14.7345ZM37.2656 16.0217L36.5304 14.0229L36.4514 14.0596L37.1927 16.0635L37.2717 16.0269L37.2656 16.0217Z" fill="#8DBFC6"/>
<path d="M35.0118 14.5617L34.6472 14.4257L34.1064 12.9607L34.2766 12.5578L35.7227 11.8462L36.0873 11.9875L36.6281 13.4473L36.4641 13.8502L35.0118 14.5617Z" fill="#2F6472"/>
<path opacity="0.7" d="M34.2764 12.5578L34.3554 12.5159L35.0967 14.5199L35.0177 14.5617L34.2764 12.5578ZM36.4638 13.8449L35.7286 11.8462L35.6496 11.8828L36.3909 13.8868L36.4699 13.8502L36.4638 13.8449Z" fill="#8DBFC6"/>
<path d="M39.6002 20.008L39.2356 19.872L38.6948 18.407L38.8589 18.0041L40.3111 17.2925L40.6757 17.4338L41.2165 18.8936L41.0524 19.2964L39.6002 20.008Z" fill="#2F6472"/>
<path opacity="0.7" d="M38.8579 18.0041L38.9369 17.9622L39.6782 19.9662L39.5992 20.008L38.8579 18.0041ZM41.0515 19.2912L40.3162 17.2925L40.2372 17.3291L40.9785 19.3331L41.0575 19.2964L41.0515 19.2912Z" fill="#8DBFC6"/>
<path d="M38.7975 17.8371L38.4329 17.6959L37.8921 16.2361L38.0562 15.8332L39.5084 15.1216L39.873 15.2576L40.4138 16.7227L40.2497 17.1255L38.7975 17.8371Z" fill="#2F6472"/>
<path opacity="0.7" d="M38.0566 15.8332L38.1356 15.7913L38.8769 17.7953L38.798 17.8371L38.0566 15.8332ZM40.2502 17.1203L39.515 15.1216L39.436 15.1582L40.1773 17.1622L40.2563 17.1255L40.2502 17.1203Z" fill="#8DBFC6"/>
<path d="M37.9947 15.6651L37.6301 15.5239L37.0894 14.0588L37.2534 13.6612L38.7057 12.9443L39.0702 13.0856L39.611 14.5506L39.447 14.9483L37.9947 15.6651Z" fill="#2F6472"/>
<path opacity="0.7" d="M37.2534 13.6615L37.3324 13.6197L38.0737 15.6237L37.9947 15.6655L37.2534 13.6615ZM39.447 14.9487L38.7117 12.95L38.6327 12.9866L39.3741 14.9905L39.453 14.9539L39.447 14.9487Z" fill="#8DBFC6"/>
<path d="M37.1935 13.489L36.8289 13.353L36.2881 11.8879L36.4521 11.4903L37.9044 10.7734L38.269 10.9147L38.8098 12.3745L38.6457 12.7774L37.1935 13.489Z" fill="#2F6472"/>
<path opacity="0.7" d="M36.4517 11.485L36.5307 11.4432L37.272 13.4471L37.193 13.489L36.4517 11.485ZM38.6452 12.7722L37.91 10.7734L37.831 10.8101L38.5723 12.814L38.6513 12.7774L38.6452 12.7722Z" fill="#8DBFC6"/>
<path d="M22.3432 17.5333L21.4622 17.4758L18.0229 7.99487L18.904 8.05243L22.3432 17.5333Z" fill="#CECECE"/>
<path d="M18.904 8.05249L18.0229 7.99494L34.1009 0L34.982 0.0575552L18.904 8.05249Z" fill="#E0E0E0"/>
<path d="M34.9813 0.057373L38.4205 9.53828L22.3425 17.5332L18.9033 8.05231L34.9813 0.057373Z" fill="#ECECEC"/>
<path d="M22.9439 16.6284L22.5794 16.4871L22.0386 15.0273L22.2026 14.6244L23.6549 13.9128L24.0195 14.0489L24.5602 15.5139L24.3962 15.9168L22.9439 16.6284Z" fill="#2F6472"/>
<path opacity="0.7" d="M22.2085 14.6244L22.2875 14.5826L23.0288 16.5865L22.9498 16.6284L22.2085 14.6244ZM24.396 15.9116L23.6607 13.9128L23.5817 13.9495L24.3231 15.9534L24.4021 15.9168L24.396 15.9116Z" fill="#8DBFC6"/>
<path d="M22.1422 14.4566L21.7776 14.3154L21.2368 12.8503L21.4009 12.4527L22.8531 11.7358L23.2177 11.8771L23.7585 13.3422L23.5944 13.7398L22.1422 14.4566Z" fill="#2F6472"/>
<path opacity="0.7" d="M21.4067 12.4528L21.4857 12.4109L22.227 14.4149L22.1481 14.4568L21.4067 12.4528ZM23.5942 13.7399L22.859 11.7412L22.78 11.7778L23.5213 13.7818L23.6003 13.7452L23.5942 13.7399Z" fill="#8DBFC6"/>
<path d="M21.3404 12.2798L20.9759 12.1437L20.4351 10.6787L20.6052 10.281L22.0514 9.56421L22.4159 9.70548L22.9567 11.1653L22.7927 11.5682L21.3404 12.2798Z" fill="#2F6472"/>
<path opacity="0.7" d="M20.6045 10.281L20.6835 10.2392L21.4248 12.2431L21.3458 12.285L20.6045 10.281ZM22.792 11.5629L22.0567 9.56421L21.9777 9.60083L22.7191 11.6048L22.798 11.5682L22.792 11.5629Z" fill="#8DBFC6"/>
<path d="M20.5382 10.1089L20.1736 9.97283L19.6328 8.50779L19.8029 8.1049L21.2491 7.39331L21.6137 7.53458L22.1545 8.99439L21.9904 9.39728L20.5382 10.1089Z" fill="#2F6472"/>
<path opacity="0.7" d="M19.8027 8.1049L19.8817 8.06304L20.623 10.067L20.544 10.1089L19.8027 8.1049ZM21.9902 9.39204L21.255 7.39331L21.176 7.42994L21.9173 9.4339L21.9963 9.39728L21.9902 9.39204Z" fill="#8DBFC6"/>
<path d="M25.1256 15.5559L24.761 15.4198L24.2202 13.9548L24.3843 13.5519L25.8365 12.8403L26.2011 12.9764L26.7419 14.4414L26.5718 14.8443L25.1256 15.5559Z" fill="#2F6472"/>
<path opacity="0.7" d="M24.3838 13.5519L24.4628 13.5101L25.2041 15.514L25.1251 15.5559L24.3838 13.5519ZM26.5773 14.8391L25.8421 12.8403L25.7631 12.877L26.5044 14.8809L26.5834 14.8443L26.5773 14.8391Z" fill="#8DBFC6"/>
<path d="M24.3238 13.3843L23.9592 13.243L23.4185 11.7832L23.5825 11.3803L25.0348 10.6687L25.3993 10.8047L25.9401 12.2698L25.77 12.6674L24.3238 13.3843Z" fill="#2F6472"/>
<path opacity="0.7" d="M23.5811 11.3803L23.66 11.3384L24.4014 13.3424L24.3224 13.3843L23.5811 11.3803ZM25.7746 12.6674L25.0394 10.6687L24.9604 10.7053L25.7017 12.7093L25.7807 12.6727L25.7746 12.6674Z" fill="#8DBFC6"/>
<path d="M23.5211 11.2127L23.1565 11.0715L22.6157 9.60642L22.7798 9.20877L24.232 8.49194L24.5966 8.63322L25.1374 10.0983L24.9673 10.4959L23.5211 11.2127Z" fill="#2F6472"/>
<path opacity="0.7" d="M22.7798 9.20877L22.8588 9.16691L23.6001 11.1709L23.5211 11.2127L22.7798 9.20877ZM24.9733 10.4907L24.2381 8.49194L24.1591 8.52857L24.9004 10.5325L24.9794 10.4959L24.9733 10.4907Z" fill="#8DBFC6"/>
<path d="M22.7184 9.03587L22.3538 8.89983L21.813 7.43479L21.977 7.0319L23.4293 6.32031L23.7939 6.46158L24.3347 7.92139L24.1706 8.32428L22.7184 9.03587Z" fill="#2F6472"/>
<path opacity="0.7" d="M21.978 7.0319L22.057 6.99005L22.7983 8.99401L22.7193 9.03587L21.978 7.0319ZM24.1716 8.31905L23.4363 6.32031L23.3574 6.35694L24.0987 8.3609L24.1777 8.32428L24.1716 8.31905Z" fill="#8DBFC6"/>
<path d="M27.3009 14.4829L26.9363 14.3469L26.3955 12.8818L26.5656 12.4789L28.0118 11.7673L28.3764 11.9086L28.9172 13.3684L28.7531 13.7713L27.3009 14.4829Z" fill="#2F6472"/>
<path opacity="0.7" d="M26.5654 12.4789L26.6444 12.4371L27.3857 14.441L27.3067 14.4829L26.5654 12.4789ZM28.7529 13.7661L28.0177 11.7673L27.9387 11.804L28.68 13.8079L28.759 13.7713L28.7529 13.7661Z" fill="#8DBFC6"/>
<path d="M26.4991 12.312L26.1345 12.1707L25.5938 10.7109L25.7639 10.308L27.2101 9.59644L27.5746 9.73248L28.1154 11.1975L27.9514 11.5952L26.4991 12.312Z" fill="#2F6472"/>
<path opacity="0.7" d="M25.7632 10.308L25.8422 10.2662L26.5835 12.2701L26.5045 12.312L25.7632 10.308ZM27.9507 11.5952L27.2154 9.59644L27.1364 9.63306L27.8777 11.637L27.9567 11.6004L27.9507 11.5952Z" fill="#8DBFC6"/>
<path d="M25.6974 10.1402L25.3328 9.99895L24.792 8.53391L24.9621 8.13626L26.4083 7.41943L26.7729 7.56071L27.3137 9.02575L27.1496 9.4234L25.6974 10.1402Z" fill="#2F6472"/>
<path opacity="0.7" d="M24.9609 8.13626L25.0399 8.0944L25.7812 10.0984L25.7022 10.1402L24.9609 8.13626ZM27.1484 9.41817L26.4132 7.41943L26.3342 7.45606L27.0755 9.46003L27.1545 9.4234L27.1484 9.41817Z" fill="#8DBFC6"/>
<path d="M24.8951 7.9636L24.5305 7.82757L23.9897 6.36252L24.1599 5.95964L25.606 5.24805L25.9767 5.38932L26.5114 6.84913L26.3474 7.25201L24.8951 7.9636Z" fill="#2F6472"/>
<path opacity="0.7" d="M24.1597 5.95964L24.2387 5.91778L24.98 7.92175L24.901 7.9636L24.1597 5.95964ZM26.3471 7.24678L25.6119 5.24805L25.5329 5.28467L26.2742 7.28864L26.3532 7.25201L26.3471 7.24678Z" fill="#8DBFC6"/>
<path d="M29.482 13.4104L29.1175 13.2743L28.5767 11.8093L28.7407 11.4064L30.193 10.6948L30.5575 10.8361L31.0983 12.2959L30.9343 12.6988L29.482 13.4104Z" fill="#2F6472"/>
<path opacity="0.7" d="M28.7407 11.4064L28.8197 11.3646L29.561 13.3685L29.482 13.4104L28.7407 11.4064ZM30.9343 12.6936L30.199 10.6948L30.12 10.7315L30.8614 12.7354L30.9404 12.6988L30.9343 12.6936Z" fill="#8DBFC6"/>
<path d="M28.6798 11.239L28.3152 11.0977L27.7744 9.63791L27.9385 9.23503L29.3907 8.52344L29.7553 8.65948L30.2961 10.1245L30.132 10.5222L28.6798 11.239Z" fill="#2F6472"/>
<path opacity="0.7" d="M27.9385 9.23503L28.0175 9.19317L28.7588 11.1971L28.6798 11.239L27.9385 9.23503ZM30.132 10.5222L29.3968 8.52344L29.3178 8.56006L30.0591 10.564L30.1381 10.5274L30.132 10.5222Z" fill="#8DBFC6"/>
<path d="M27.878 9.06747L27.5134 8.9262L26.9727 7.46116L27.1367 7.0635L28.589 6.34668L28.9535 6.48795L29.4943 7.95299L29.3303 8.35065L27.878 9.06747Z" fill="#2F6472"/>
<path opacity="0.7" d="M27.1362 7.0634L27.2152 7.02154L27.9565 9.02551L27.8775 9.06736L27.1362 7.0634ZM29.3298 8.35054L28.5946 6.35181L28.5156 6.38843L29.2569 8.3924L29.3359 8.35577L29.3298 8.35054Z" fill="#8DBFC6"/>
<path d="M27.0753 6.8911L26.7107 6.75506L26.1699 5.29001L26.334 4.89236L27.7862 4.17554L28.1508 4.31681L28.6916 5.77662L28.5275 6.1795L27.0753 6.8911Z" fill="#2F6472"/>
<path opacity="0.7" d="M26.334 4.88713L26.413 4.84527L27.1543 6.84924L27.0753 6.8911L26.334 4.88713ZM28.5275 6.17427L27.7923 4.17554L27.7133 4.21216L28.4546 6.21613L28.5336 6.1795L28.5275 6.17427Z" fill="#8DBFC6"/>
<path d="M31.6578 12.3379L31.2932 12.2018L30.7524 10.7368L30.9226 10.3339L32.3687 9.62231L32.7394 9.76359L33.2741 11.2234L33.1101 11.6263L31.6578 12.3379Z" fill="#2F6472"/>
<path opacity="0.7" d="M30.9229 10.3339L31.0018 10.292L31.7432 12.296L31.6642 12.3379L30.9229 10.3339ZM33.1103 11.621L32.3751 9.62231L32.2961 9.65894L33.0374 11.6629L33.1164 11.6263L33.1103 11.621Z" fill="#8DBFC6"/>
<path d="M30.8551 10.1662L30.4905 10.025L29.9497 8.56516L30.1198 8.16228L31.5721 7.45068L31.9367 7.58672L32.4714 9.05176L32.3073 9.45465L30.8551 10.1662Z" fill="#2F6472"/>
<path opacity="0.7" d="M30.1201 8.16228L30.1991 8.12042L30.9404 10.1244L30.8614 10.1662L30.1201 8.16228ZM32.3076 9.44942L31.5724 7.45068L31.4934 7.48731L32.2347 9.49128L32.3137 9.45465L32.3076 9.44942Z" fill="#8DBFC6"/>
<path d="M30.0536 7.99472L29.689 7.85344L29.1543 6.3884L29.3184 5.99075L30.7706 5.27393L31.1352 5.4152L31.676 6.88024L31.5058 7.27789L30.0536 7.99472Z" fill="#2F6472"/>
<path opacity="0.7" d="M29.3184 5.99113L29.3974 5.94927L30.1387 7.95324L30.0597 7.9951L29.3184 5.99113ZM31.5058 7.27827L30.7706 5.27954L30.6916 5.31617L31.4329 7.32013L31.5119 7.28351L31.5058 7.27827Z" fill="#8DBFC6"/>
<path d="M29.2579 5.81834L28.8873 5.6823L28.3525 4.21726L28.5166 3.81961L29.9688 3.10278L30.3334 3.24405L30.8742 4.70386L30.7041 5.10675L29.2579 5.81834Z" fill="#2F6472"/>
<path opacity="0.7" d="M28.5166 3.81961L28.5956 3.77775L29.3369 5.78171L29.2579 5.82357L28.5166 3.81961ZM30.7041 5.10152L29.9688 3.10278L29.8899 3.13941L30.6312 5.14338L30.7102 5.10675L30.7041 5.10152Z" fill="#8DBFC6"/>
<path d="M33.8385 11.2651L33.4739 11.1291L32.9331 9.66404L33.0972 9.26638L34.5494 8.54956L34.914 8.69083L35.4548 10.1506L35.2907 10.5535L33.8385 11.2651Z" fill="#2F6472"/>
<path opacity="0.7" d="M33.0981 9.26115L33.1771 9.21929L33.9184 11.2233L33.8395 11.2651L33.0981 9.26115ZM35.2917 10.5483L34.5565 8.54956L34.4775 8.58619L35.2188 10.5902L35.2978 10.5535L35.2917 10.5483Z" fill="#8DBFC6"/>
<path d="M33.0367 9.09373L32.6721 8.95246L32.1313 7.49265L32.2954 7.08977L33.7477 6.37817L34.1122 6.51421L34.653 7.97925L34.489 8.38214L33.0367 9.09373Z" fill="#2F6472"/>
<path opacity="0.7" d="M32.2954 7.08977L32.3744 7.04791L33.1157 9.05187L33.0367 9.09373L32.2954 7.08977ZM34.489 8.37691L33.7537 6.37817L33.6747 6.4148L34.416 8.41877L34.495 8.38214L34.489 8.37691Z" fill="#8DBFC6"/>
<path d="M32.235 6.92234L31.8704 6.78107L31.3296 5.32126L31.4937 4.91838L32.9459 4.20679L33.3105 4.34283L33.8513 5.80787L33.6872 6.20552L32.235 6.92234Z" fill="#2F6472"/>
<path opacity="0.7" d="M31.499 4.91838L31.578 4.87652L32.3193 6.88049L32.2403 6.92234L31.499 4.91838ZM33.6865 6.20552L32.9513 4.20679L32.8723 4.24341L33.6136 6.24738L33.6926 6.21075L33.6865 6.20552Z" fill="#8DBFC6"/>
<path d="M31.4322 4.75082L31.0676 4.60955L30.5269 3.14451L30.6909 2.74685L32.1432 2.03003L32.5077 2.1713L33.0485 3.63634L32.8845 4.034L31.4322 4.75082Z" fill="#2F6472"/>
<path opacity="0.7" d="M30.6978 2.74685L30.7767 2.70499L31.5181 4.70896L31.4391 4.75082L30.6978 2.74685ZM32.8852 4.02876L32.15 2.03003L32.071 2.06666L32.8123 4.07062L32.8913 4.034L32.8852 4.02876Z" fill="#8DBFC6"/>
<path d="M36.0201 10.1924L35.6495 10.0563L35.1147 8.59128L35.2788 8.19363L36.731 7.47681L37.0956 7.61808L37.6364 9.07789L37.4663 9.48077L36.0201 10.1924Z" fill="#2F6472"/>
<path opacity="0.7" d="M35.2788 8.19363L35.3578 8.15177L36.0991 10.1557L36.0201 10.1976L35.2788 8.19363ZM37.4724 9.47554L36.7371 7.47681L36.6581 7.51343L37.3994 9.5174L37.4784 9.48077L37.4724 9.47554Z" fill="#8DBFC6"/>
<path d="M35.2184 8.02122L34.8538 7.88518L34.313 6.42014L34.477 6.01726L35.9293 5.30566L36.2939 5.4417L36.8347 6.90674L36.6645 7.30963L35.2184 8.02122Z" fill="#2F6472"/>
<path opacity="0.7" d="M34.4775 6.01726L34.5565 5.9754L35.2978 7.97936L35.2188 8.02122L34.4775 6.01726ZM36.6711 7.3044L35.9359 5.30566L35.8569 5.34229L36.5982 7.34626L36.6772 7.30963L36.6711 7.3044Z" fill="#8DBFC6"/>
<path d="M34.4156 5.84984L34.051 5.70856L33.5103 4.24875L33.6743 3.84587L35.1266 3.13428L35.4911 3.27032L36.0319 4.73536L35.8618 5.13301L34.4156 5.84984Z" fill="#2F6472"/>
<path opacity="0.7" d="M33.6753 3.84587L33.7543 3.80401L34.4956 5.80798L34.4166 5.84984L33.6753 3.84587ZM35.8688 5.13301L35.1336 3.13428L35.0546 3.1709L35.7959 5.17487L35.8749 5.13824L35.8688 5.13301Z" fill="#8DBFC6"/>
<path d="M33.6144 3.67855L33.2498 3.53728L32.709 2.07224L32.873 1.67459L34.3253 0.957764L34.6899 1.09904L35.2307 2.56408L35.0605 2.96173L33.6144 3.67855Z" fill="#2F6472"/>
<path opacity="0.7" d="M32.8726 1.67459L32.9516 1.63273L33.6929 3.6367L33.6139 3.67855L32.8726 1.67459ZM35.0661 2.9565L34.3309 0.957764L34.2519 0.99439L34.9932 2.99836L35.0722 2.96173L35.0661 2.9565Z" fill="#8DBFC6"/>
<path d="M7.89986 36.3068L7.01879 36.2492L3.57959 26.7683L4.46066 26.8259L7.89986 36.3068Z" fill="#CECECE"/>
<path d="M4.46066 26.8259L3.57959 26.7684L19.6576 18.7734L20.5386 18.831L4.46066 26.8259Z" fill="#E0E0E0"/>
<path d="M20.5389 18.8306L23.9781 28.3167L7.90014 36.3064L4.46094 26.8255L20.5389 18.8306Z" fill="#ECECEC"/>
<path d="M8.5001 35.4016L8.13552 35.2656L7.59473 33.8005L7.76486 33.4029L9.21103 32.686L9.57561 32.8273L10.1164 34.2871L9.95234 34.69L8.5001 35.4016Z" fill="#2F6472"/>
<path opacity="0.7" d="M7.76514 33.3976L7.84413 33.3558L8.58544 35.3597L8.50645 35.4016L7.76514 33.3976ZM9.95261 34.6848L9.21738 32.686L9.13839 32.7227L9.8797 34.7266L9.95869 34.69L9.95261 34.6848Z" fill="#8DBFC6"/>
<path d="M7.69785 33.2302L7.33327 33.0889L6.79248 31.6291L6.96262 31.2262L8.40878 30.5146L8.77336 30.6507L9.31416 32.1157L9.1501 32.5186L7.69785 33.2302Z" fill="#2F6472"/>
<path opacity="0.7" d="M6.96338 31.2262L7.04237 31.1844L7.78368 33.1883L7.70469 33.2302L6.96338 31.2262ZM9.15086 32.5134L8.41562 30.5146L8.33663 30.5513L9.07794 32.5552L9.15693 32.5186L9.15086 32.5134Z" fill="#8DBFC6"/>
<path d="M6.89658 31.0586L6.532 30.9173L5.99121 29.4575L6.16135 29.0546L7.60751 28.343L7.97209 28.4791L8.51289 29.9441L8.34883 30.3418L6.89658 31.0586Z" fill="#2F6472"/>
<path opacity="0.7" d="M6.16064 29.0546L6.23964 29.0128L6.98095 31.0167L6.90196 31.0586L6.16064 29.0546ZM8.34812 30.3418L7.61289 28.343L7.53389 28.3796L8.27521 30.3836L8.3542 30.347L8.34812 30.3418Z" fill="#8DBFC6"/>
<path d="M6.09385 28.8823L5.72927 28.7463L5.18848 27.2812L5.35861 26.8836L6.80478 26.1667L7.16936 26.308L7.71015 27.7731L7.54609 28.1707L6.09385 28.8823Z" fill="#2F6472"/>
<path opacity="0.7" d="M5.35938 26.8836L5.43837 26.8417L6.17968 28.8457L6.10069 28.8875L5.35938 26.8836ZM7.54685 28.1655L6.81162 26.1667L6.73263 26.2034L7.47394 28.2073L7.55293 28.1707L7.54685 28.1655Z" fill="#8DBFC6"/>
<path d="M10.6817 34.3291L10.3172 34.193L9.77637 32.728L9.94043 32.3304L11.3927 31.6135L11.7573 31.7548L12.298 33.2146L12.1279 33.6175L10.6817 34.3291Z" fill="#2F6472"/>
<path opacity="0.7" d="M9.94043 32.3304L10.0194 32.2885L10.7607 34.2925L10.6817 34.3343L9.94043 32.3304ZM12.134 33.6123L11.3987 31.6135L11.3198 31.6502L12.0611 33.6541L12.1401 33.6175L12.134 33.6123Z" fill="#8DBFC6"/>
<path d="M9.87998 32.1577L9.5154 32.0217L8.97461 30.5566L9.13867 30.1537L10.5909 29.4421L10.9555 29.5782L11.4963 31.0432L11.3322 31.4461L9.87998 32.1577Z" fill="#2F6472"/>
<path opacity="0.7" d="M9.13916 30.1537L9.21815 30.1119L9.95946 32.1158L9.88047 32.1577L9.13916 30.1537ZM11.3327 31.4409L10.5975 29.4421L10.5185 29.4788L11.2598 31.4827L11.3388 31.4461L11.3327 31.4409Z" fill="#8DBFC6"/>
<path d="M9.07725 29.9861L8.71267 29.8448L8.17188 28.385L8.33594 27.9821L9.78818 27.2705L10.1528 27.4065L10.6936 28.8716L10.5295 29.2692L9.07725 29.9861Z" fill="#2F6472"/>
<path opacity="0.7" d="M8.33691 27.9821L8.41591 27.9402L9.15722 29.9442L9.07823 29.9861L8.33691 27.9821ZM10.5305 29.2692L9.79523 27.2705L9.71624 27.3071L10.4576 29.3111L10.5365 29.2745L10.5305 29.2692Z" fill="#8DBFC6"/>
<path d="M8.27598 27.8148L7.9114 27.6735L7.37061 26.2085L7.53467 25.8108L8.98691 25.094L9.35149 25.2353L9.89228 26.7003L9.72822 27.098L8.27598 27.8148Z" fill="#2F6472"/>
<path opacity="0.7" d="M7.53418 25.8108L7.61317 25.769L8.35448 27.7729L8.27549 27.8148L7.53418 25.8108ZM9.72773 27.0927L8.9925 25.094L8.91351 25.1306L9.65482 27.1346L9.73381 27.098L9.72773 27.0927Z" fill="#8DBFC6"/>
<path d="M12.857 33.2613L12.4925 33.12L11.9517 31.655L12.1218 31.2574L13.568 30.5405L13.9325 30.6818L14.4733 32.1468L14.3093 32.5445L12.857 33.2613Z" fill="#2F6472"/>
<path opacity="0.7" d="M12.1221 31.2574L12.2011 31.2155L12.9424 33.2195L12.8634 33.2613L12.1221 31.2574ZM14.3095 32.5393L13.5743 30.5405L13.4953 30.5772L14.2366 32.5811L14.3156 32.5445L14.3095 32.5393Z" fill="#8DBFC6"/>
<path d="M12.0553 31.0849L11.6907 30.9489L11.1499 29.4839L11.32 29.081L12.7662 28.3694L13.1369 28.5107L13.6716 29.9705L13.5075 30.3734L12.0553 31.0849Z" fill="#2F6472"/>
<path opacity="0.7" d="M11.3203 29.081L11.3993 29.0391L12.1406 31.0431L12.0616 31.0849L11.3203 29.081ZM13.5078 30.3681L12.7726 28.3694L12.6936 28.406L13.4349 30.41L13.5139 30.3734L13.5078 30.3681Z" fill="#8DBFC6"/>
<path d="M11.2535 28.9138L10.8889 28.7725L10.3481 27.3127L10.5183 26.9098L11.9644 26.1982L12.3351 26.3343L12.8698 27.7993L12.7058 28.197L11.2535 28.9138Z" fill="#2F6472"/>
<path opacity="0.7" d="M10.5186 26.9098L10.5975 26.868L11.3389 28.8719L11.2599 28.9138L10.5186 26.9098ZM12.706 28.197L11.9708 26.1982L11.8918 26.2349L12.6331 28.2388L12.7121 28.2022L12.706 28.197Z" fill="#8DBFC6"/>
<path d="M10.4511 26.7423L10.0865 26.601L9.55176 25.136L9.71582 24.7383L11.1681 24.0215L11.5326 24.1628L12.0674 25.6278L11.9033 26.0255L10.4511 26.7423Z" fill="#2F6472"/>
<path opacity="0.7" d="M9.71631 24.7384L9.7953 24.6966L10.5366 26.7006L10.4576 26.7424L9.71631 24.7384ZM11.9038 26.0256L11.1686 24.0269L11.0896 24.0635L11.8309 26.0674L11.9099 26.0308L11.9038 26.0256Z" fill="#8DBFC6"/>
<path d="M15.0387 32.1891L14.6741 32.0478L14.1333 30.5827L14.2974 30.1851L15.7496 29.4683L16.1142 29.6095L16.655 31.0746L16.4909 31.4722L15.0387 32.1891Z" fill="#2F6472"/>
<path opacity="0.7" d="M14.2974 30.1851L14.3764 30.1432L15.1177 32.1472L15.0387 32.1891L14.2974 30.1851ZM16.4909 31.467L15.7557 29.4683L15.6767 29.5049L16.418 31.5089L16.497 31.4722L16.4909 31.467Z" fill="#8DBFC6"/>
<path d="M14.2369 30.0122L13.8723 29.8761L13.3315 28.4111L13.4956 28.0082L14.9478 27.2966L15.3124 27.4379L15.8532 28.8977L15.6892 29.3006L14.2369 30.0122Z" fill="#2F6472"/>
<path opacity="0.7" d="M13.4961 28.0082L13.5751 27.9664L14.3164 29.9703L14.2374 30.0122L13.4961 28.0082ZM15.6896 29.2954L14.9544 27.2966L14.8754 27.3333L15.6167 29.3372L15.6957 29.3006L15.6896 29.2954Z" fill="#8DBFC6"/>
<path d="M13.4347 27.8408L13.0701 27.6995L12.5293 26.2397L12.6934 25.8368L14.1456 25.1252L14.5102 25.2613L15.051 26.7263L14.8869 27.1292L13.4347 27.8408Z" fill="#2F6472"/>
<path opacity="0.7" d="M12.6934 25.8368L12.7724 25.795L13.5137 27.7989L13.4347 27.8408L12.6934 25.8368ZM14.8869 27.124L14.1517 25.1252L14.0727 25.1619L14.814 27.1658L14.893 27.1292L14.8869 27.124Z" fill="#8DBFC6"/>
<path d="M12.6324 25.6695L12.2678 25.5282L11.7271 24.0632L11.8911 23.6656L13.3434 22.9487L13.7079 23.09L14.2487 24.555L14.0847 24.9527L12.6324 25.6695Z" fill="#2F6472"/>
<path opacity="0.7" d="M11.8975 23.6659L11.9765 23.6241L12.7178 25.628L12.6388 25.6699L11.8975 23.6659ZM14.0849 24.9531L13.3497 22.9543L13.2707 22.991L14.012 24.9949L14.091 24.9583L14.0849 24.9531Z" fill="#8DBFC6"/>
<path d="M17.2142 31.1168L16.8497 30.9755L16.3149 29.5105L16.479 29.1128L17.9312 28.396L18.2958 28.5373L18.8366 30.0023L18.6665 30.4L17.2142 31.1168Z" fill="#2F6472"/>
<path opacity="0.7" d="M16.479 29.1125L16.558 29.0706L17.2993 31.0746L17.2203 31.1164L16.479 29.1125ZM18.6665 30.3996L17.9312 28.4009L17.8523 28.4375L18.5936 30.4415L18.6726 30.4048L18.6665 30.3996Z" fill="#8DBFC6"/>
<path d="M16.4186 28.9399L16.0479 28.8039L15.5132 27.3388L15.6772 26.9412L17.1295 26.2244L17.4941 26.3656L18.0349 27.8254L17.8647 28.2283L16.4186 28.9399Z" fill="#2F6472"/>
<path opacity="0.7" d="M15.6777 26.936L15.7567 26.8941L16.498 28.8981L16.419 28.9399L15.6777 26.936ZM17.8652 28.2231L17.13 26.2244L17.051 26.261L17.7923 28.265L17.8713 28.2283L17.8652 28.2231Z" fill="#8DBFC6"/>
<path d="M15.6158 26.7683L15.2452 26.627L14.7104 25.1672L14.8745 24.7643L16.3268 24.0527L16.6913 24.1888L17.2321 25.6538L17.062 26.0567L15.6158 26.7683Z" fill="#2F6472"/>
<path opacity="0.7" d="M14.8745 24.7643L14.9535 24.7225L15.6948 26.7264L15.6158 26.7683L14.8745 24.7643ZM17.0681 26.0515L16.3328 24.0527L16.2538 24.0894L16.9951 26.0933L17.0741 26.0567L17.0681 26.0515Z" fill="#8DBFC6"/>
<path d="M14.8146 24.5968L14.45 24.4555L13.9092 22.9905L14.0732 22.5928L15.5255 21.876L15.8901 22.0172L16.4309 23.4823L16.2607 23.8799L14.8146 24.5968Z" fill="#2F6472"/>
<path opacity="0.7" d="M14.0728 22.5929L14.1517 22.5511L14.8931 24.555L14.8141 24.5969L14.0728 22.5929ZM16.2663 23.8801L15.5311 21.8813L15.4521 21.918L16.1934 23.9219L16.2724 23.8853L16.2663 23.8801Z" fill="#8DBFC6"/>
<path d="M19.3956 30.0438L19.031 29.9025L18.4902 28.4375L18.6543 28.0398L20.1065 27.323L20.4711 27.4643L21.0119 28.9293L20.8479 29.327L19.3956 30.0438Z" fill="#2F6472"/>
<path opacity="0.7" d="M18.6606 28.0402L18.7396 27.9983L19.481 30.0023L19.402 30.0442L18.6606 28.0402ZM20.8481 29.3273L20.1129 27.3286L20.0339 27.3652L20.7752 29.3692L20.8542 29.3326L20.8481 29.3273Z" fill="#8DBFC6"/>
<path d="M18.5943 27.8677L18.2298 27.7316L17.689 26.2666L17.853 25.8689L19.3053 25.1521L19.6698 25.2934L20.2106 26.7532L20.0466 27.1561L18.5943 27.8677Z" fill="#2F6472"/>
<path opacity="0.7" d="M17.8579 25.8689L17.9369 25.8271L18.6782 27.831L18.5992 27.8729L17.8579 25.8689ZM20.0454 27.1508L19.3102 25.1521L19.2312 25.1887L19.9725 27.1927L20.0515 27.1561L20.0454 27.1508Z" fill="#8DBFC6"/>
<path d="M17.7916 25.6955L17.427 25.5595L16.8862 24.0945L17.0503 23.6916L18.5025 22.98L18.8671 23.116L19.4079 24.5811L19.2438 24.9839L17.7916 25.6955Z" fill="#2F6472"/>
<path opacity="0.7" d="M17.0562 23.6916L17.1351 23.6497L17.8765 25.6537L17.7975 25.6955L17.0562 23.6916ZM19.2436 24.9787L18.5084 22.98L18.4294 23.0166L19.1707 25.0206L19.2497 24.9839L19.2436 24.9787Z" fill="#8DBFC6"/>
<path d="M16.9889 23.5244L16.6243 23.3831L16.0835 21.9233L16.2536 21.5204L17.6998 20.8088L18.0644 20.9449L18.6052 22.4099L18.4411 22.8076L16.9889 23.5244Z" fill="#2F6472"/>
<path opacity="0.7" d="M16.2534 21.5204L16.3324 21.4786L17.0737 23.4825L16.9947 23.5244L16.2534 21.5204ZM18.4409 22.8076L17.7057 20.8088L17.6267 20.8455L18.368 22.8494L18.447 22.8128L18.4409 22.8076Z" fill="#8DBFC6"/>
<path d="M21.5772 28.9708L21.2127 28.8295L20.6719 27.3645L20.8359 26.9668L22.2882 26.25L22.6528 26.3913L23.1935 27.8563L23.0234 28.254L21.5772 28.9708Z" fill="#2F6472"/>
<path opacity="0.7" d="M20.835 26.9672L20.914 26.9253L21.6553 28.9293L21.5763 28.9712L20.835 26.9672ZM23.0285 28.2543L22.2933 26.2556L22.2143 26.2922L22.9556 28.2962L23.0346 28.2596L23.0285 28.2543Z" fill="#8DBFC6"/>
<path d="M20.7745 26.7947L20.4099 26.6586L19.8691 25.1936L20.0332 24.7959L21.4854 24.0791L21.85 24.2204L22.3908 25.6802L22.2207 26.0831L20.7745 26.7947Z" fill="#2F6472"/>
<path opacity="0.7" d="M20.0332 24.7959L20.1122 24.7541L20.8535 26.758L20.7745 26.7999L20.0332 24.7959ZM22.2268 26.0778L21.4915 24.0791L21.4125 24.1157L22.1538 26.1197L22.2328 26.0831L22.2268 26.0778Z" fill="#8DBFC6"/>
<path d="M19.9732 24.6233L19.6087 24.4872L19.0679 23.0222L19.2319 22.6193L20.6842 21.9077L21.0488 22.049L21.5895 23.5088L21.4194 23.9117L19.9732 24.6233Z" fill="#2F6472"/>
<path opacity="0.7" d="M19.2314 22.6193L19.3104 22.5774L20.0517 24.5814L19.9728 24.6233L19.2314 22.6193ZM21.425 23.9064L20.6898 21.9077L20.6108 21.9443L21.3521 23.9483L21.4311 23.9117L21.425 23.9064Z" fill="#8DBFC6"/>
<path d="M19.1705 22.4519L18.8059 22.3106L18.2651 20.8508L18.4292 20.4479L19.8814 19.7363L20.246 19.8724L20.7868 21.3374L20.6167 21.7351L19.1705 22.4519Z" fill="#2F6472"/>
<path opacity="0.7" d="M18.4292 20.4479L18.5082 20.4061L19.2495 22.41L19.1705 22.4519L18.4292 20.4479ZM20.6228 21.7351L19.8875 19.7363L19.8085 19.773L20.5498 21.7769L20.6288 21.7403L20.6228 21.7351Z" fill="#8DBFC6"/>
<path d="M4.32027 26.4961L3.4392 26.4385L0 16.9524L0.881068 17.0099L4.32027 26.4961Z" fill="#CECECE"/>
<path d="M0.881068 17.0099L0 16.9524L16.078 8.96265L16.959 9.01497L0.881068 17.0099Z" fill="#E0E0E0"/>
<path d="M16.9593 9.01538L20.3985 18.5015L4.32055 26.4965L0.881348 17.0103L16.9593 9.01538Z" fill="#ECECEC"/>
<path d="M4.92197 25.5909L4.55739 25.4496L4.0166 23.9846L4.18066 23.5869L5.63291 22.8701L5.99748 23.0114L6.53828 24.4764L6.37422 24.8741L4.92197 25.5909Z" fill="#2F6472"/>
<path opacity="0.7" d="M4.18066 23.5869L4.25966 23.5451L5.00097 25.5491L4.92198 25.5909L4.18066 23.5869ZM6.37422 24.8689L5.63898 22.8701L5.55999 22.9067L6.3013 24.9107L6.38029 24.8741L6.37422 24.8689Z" fill="#8DBFC6"/>
<path d="M4.12022 23.4145L3.75564 23.2785L3.21484 21.8135L3.3789 21.4106L4.83115 20.699L5.19573 20.8402L5.73652 22.3001L5.57246 22.7029L4.12022 23.4145Z" fill="#2F6472"/>
<path opacity="0.7" d="M3.37793 21.4106L3.45692 21.3687L4.19823 23.3727L4.11924 23.4145L3.37793 21.4106ZM5.57148 22.6977L4.83625 20.699L4.75726 20.7356L5.49857 22.7396L5.57756 22.7029L5.57148 22.6977Z" fill="#8DBFC6"/>
<path d="M3.31846 21.2431L2.95388 21.1019L2.41309 19.6421L2.57715 19.2392L4.02939 18.5276L4.39397 18.6636L4.93476 20.1287L4.7707 20.5316L3.31846 21.2431Z" fill="#2F6472"/>
<path opacity="0.7" d="M2.58203 19.2392L2.66102 19.1973L3.40234 21.2013L3.32334 21.2431L2.58203 19.2392ZM4.76951 20.5263L4.03427 18.5276L3.95528 18.5642L4.69659 20.5682L4.77559 20.5316L4.76951 20.5263Z" fill="#8DBFC6"/>
<path d="M2.51572 19.0719L2.15114 18.9306L1.61035 17.4656L1.77441 17.0679L3.22665 16.3511L3.59123 16.4923L4.13203 17.9574L3.96797 18.355L2.51572 19.0719Z" fill="#2F6472"/>
<path opacity="0.7" d="M1.77979 17.0675L1.85878 17.0257L2.60009 19.0297L2.5211 19.0715L1.77979 17.0675ZM3.96726 18.3547L3.23203 16.356L3.15304 16.3926L3.89435 18.3965L3.97334 18.3599L3.96726 18.3547Z" fill="#8DBFC6"/>
<path d="M7.10313 24.5186L6.73247 24.3774L6.19775 22.9123L6.36182 22.5147L7.81406 21.7979L8.17864 21.9391L8.71943 23.4042L8.54929 23.8018L7.10313 24.5186Z" fill="#2F6472"/>
<path opacity="0.7" d="M6.36084 22.5148L6.43983 22.473L7.18114 24.4769L7.10215 24.5188L6.36084 22.5148ZM8.54832 23.802L7.81308 21.8032L7.73409 21.8399L8.4754 23.8438L8.55439 23.8072L8.54832 23.802Z" fill="#8DBFC6"/>
<path d="M6.30039 22.3418L5.92974 22.2057L5.39502 20.7407L5.55908 20.3378L7.01132 19.6262L7.3759 19.7675L7.9167 21.2273L7.74656 21.6302L6.30039 22.3418Z" fill="#2F6472"/>
<path opacity="0.7" d="M5.55957 20.3378L5.63856 20.296L6.37987 22.2999L6.30088 22.3418L5.55957 20.3378ZM7.75312 21.625L7.01789 19.6262L6.9389 19.6628L7.68021 21.6668L7.7592 21.6302L7.75312 21.625Z" fill="#8DBFC6"/>
<path d="M5.49863 20.1704L5.13405 20.0291L4.59326 18.5693L4.75732 18.1664L6.20957 17.4548L6.57414 17.5909L7.11494 19.0559L6.9448 19.4588L5.49863 20.1704Z" fill="#2F6472"/>
<path opacity="0.7" d="M4.75732 18.1664L4.83632 18.1246L5.57763 20.1285L5.49864 20.1704L4.75732 18.1664ZM6.95088 19.4536L6.21564 17.4548L6.13665 17.4915L6.87796 19.4954L6.95695 19.4588L6.95088 19.4536Z" fill="#8DBFC6"/>
<path d="M4.69639 17.9989L4.33181 17.8576L3.79102 16.3926L3.95508 15.9949L5.40732 15.2781L5.7719 15.4193L6.31269 16.8844L6.14255 17.282L4.69639 17.9989Z" fill="#2F6472"/>
<path opacity="0.7" d="M3.95508 15.9953L4.03407 15.9534L4.77538 17.9574L4.69639 17.9993L3.95508 15.9953ZM6.14863 17.2824L5.4134 15.2837L5.3344 15.3203L6.07572 17.3243L6.15471 17.2877L6.14863 17.2824Z" fill="#8DBFC6"/>
<path d="M9.27744 23.4459L8.91286 23.3046L8.37207 21.8396L8.53613 21.4419L9.98837 20.7251L10.353 20.8664L10.8937 22.3314L10.7297 22.7291L9.27744 23.4459Z" fill="#2F6472"/>
<path opacity="0.7" d="M8.54346 21.4421L8.62245 21.4002L9.36376 23.4042L9.28477 23.446L8.54346 21.4421ZM10.7309 22.7292L9.9957 20.7305L9.91671 20.7671L10.658 22.7711L10.737 22.7344L10.7309 22.7292Z" fill="#8DBFC6"/>
<path d="M8.47617 21.2693L8.11159 21.1332L7.5708 19.6682L7.73486 19.2705L9.1871 18.5537L9.55168 18.695L10.0925 20.1548L9.92842 20.5577L8.47617 21.2693Z" fill="#2F6472"/>
<path opacity="0.7" d="M7.74121 19.2653L7.8202 19.2234L8.56152 21.2274L8.48252 21.2693L7.74121 19.2653ZM9.92869 20.5524L9.19345 18.5537L9.11446 18.5903L9.85577 20.5943L9.93477 20.5577L9.92869 20.5524Z" fill="#8DBFC6"/>
<path d="M7.67344 19.0974L7.30886 18.9561L6.76807 17.4963L6.9382 17.0934L8.38437 16.3818L8.74895 16.5179L9.28974 17.9829L9.12568 18.3858L7.67344 19.0974Z" fill="#2F6472"/>
<path opacity="0.7" d="M6.93945 17.0934L7.01845 17.0516L7.75976 19.0555L7.68077 19.0974L6.93945 17.0934ZM9.12693 18.3806L8.3917 16.3818L8.3127 16.4185L9.05402 18.4224L9.13301 18.3858L9.12693 18.3806Z" fill="#8DBFC6"/>
<path d="M6.87266 16.9265L6.50808 16.7852L5.96729 15.3254L6.13742 14.9225L7.58359 14.2109L7.94817 14.347L8.48896 15.812L8.3249 16.2097L6.87266 16.9265Z" fill="#2F6472"/>
<path opacity="0.7" d="M6.13672 14.9225L6.21571 14.8807L6.95702 16.8846L6.87803 16.9265L6.13672 14.9225ZM8.3242 16.2097L7.58896 14.2109L7.50997 14.2476L8.25128 16.2515L8.33027 16.2149L8.3242 16.2097Z" fill="#8DBFC6"/>
<path d="M11.4596 22.3734L11.095 22.2321L10.5542 20.7671L10.7183 20.3694L12.1705 19.6526L12.5351 19.7939L13.0759 21.2589L12.9057 21.6566L11.4596 22.3734Z" fill="#2F6472"/>
<path opacity="0.7" d="M10.7183 20.3691L10.7973 20.3272L11.5386 22.3312L11.4596 22.373L10.7183 20.3691ZM12.9118 21.6562L12.1766 19.6575L12.0976 19.6941L12.8389 21.6981L12.9179 21.6614L12.9118 21.6562Z" fill="#8DBFC6"/>
<path d="M10.6573 20.1965L10.2927 20.0605L9.75195 18.5954L9.91601 18.1978L11.3683 17.481L11.7328 17.6222L12.2736 19.082L12.1035 19.4849L10.6573 20.1965Z" fill="#2F6472"/>
<path opacity="0.7" d="M9.9165 18.1978L9.9955 18.1559L10.7368 20.1599L10.6578 20.2017L9.9165 18.1978ZM12.1101 19.4797L11.3748 17.481L11.2958 17.5176L12.0371 19.5216L12.1161 19.4849L12.1101 19.4797Z" fill="#8DBFC6"/>
<path d="M9.85508 18.0251L9.4905 17.8891L8.94971 16.424L9.11377 16.0212L10.566 15.3096L10.9306 15.4508L11.4714 16.9107L11.3012 17.3135L9.85508 18.0251Z" fill="#2F6472"/>
<path opacity="0.7" d="M9.11377 16.0212L9.19276 15.9793L9.93407 17.9833L9.85508 18.0251L9.11377 16.0212ZM11.3073 17.3083L10.5721 15.3096L10.4931 15.3462L11.2344 17.3502L11.3134 17.3135L11.3073 17.3083Z" fill="#8DBFC6"/>
<path d="M9.05332 15.8537L8.68874 15.7125L8.14795 14.2527L8.31201 13.8498L9.76425 13.1382L10.1288 13.2742L10.6696 14.7393L10.5056 15.1369L9.05332 15.8537Z" fill="#2F6472"/>
<path opacity="0.7" d="M8.3125 13.8498L8.39149 13.8079L9.1328 15.8119L9.05381 15.8537L8.3125 13.8498ZM10.5061 15.1369L9.77082 13.1382L9.69183 13.1748L10.4331 15.1788L10.5121 15.1422L10.5061 15.1369Z" fill="#8DBFC6"/>
<path d="M13.6349 21.3008L13.2703 21.1595L12.7295 19.6997L12.8996 19.2968L14.3458 18.5852L14.7104 18.7212L15.2512 20.1863L15.0871 20.5839L13.6349 21.3008Z" fill="#2F6472"/>
<path opacity="0.7" d="M12.8999 19.2968L12.9789 19.2549L13.7202 21.2589L13.6412 21.3008L12.8999 19.2968ZM15.0874 20.5839L14.3521 18.5852L14.2732 18.6218L15.0145 20.6258L15.0935 20.5892L15.0874 20.5839Z" fill="#8DBFC6"/>
<path d="M12.8331 19.129L12.4685 18.9877L11.9277 17.5227L12.0979 17.125L13.544 16.4082L13.9086 16.5495L14.4494 18.0145L14.2854 18.4122L12.8331 19.129Z" fill="#2F6472"/>
<path opacity="0.7" d="M12.0981 17.125L12.1771 17.0832L12.9184 19.0871L12.8395 19.129L12.0981 17.125ZM14.2856 18.4069L13.5504 16.4082L13.4714 16.4448L14.2127 18.4488L14.2917 18.4122L14.2856 18.4069Z" fill="#8DBFC6"/>
<path d="M12.0304 16.9526L11.6658 16.8166L11.125 15.3515L11.2951 14.9487L12.7413 14.2371L13.1059 14.3783L13.6467 15.8381L13.4826 16.241L12.0304 16.9526Z" fill="#2F6472"/>
<path opacity="0.7" d="M11.2954 14.9487L11.3744 14.9068L12.1157 16.9108L12.0367 16.9526L11.2954 14.9487ZM13.4829 16.2358L12.7477 14.2371L12.6687 14.2737L13.41 16.2777L13.489 16.241L13.4829 16.2358Z" fill="#8DBFC6"/>
<path d="M11.2291 14.7815L10.8645 14.6402L10.3237 13.1804L10.4939 12.7775L11.94 12.0659L12.3107 12.202L12.8454 13.667L12.6813 14.0699L11.2291 14.7815Z" fill="#2F6472"/>
<path opacity="0.7" d="M10.4937 12.7775L10.5726 12.7357L11.314 14.7396L11.235 14.7815L10.4937 12.7775ZM12.6811 14.0647L11.9459 12.0659L11.8669 12.1025L12.6082 14.1065L12.6872 14.0699L12.6811 14.0647Z" fill="#8DBFC6"/>
<path d="M15.8165 20.2285L15.4519 20.0872L14.9111 18.6274L15.0752 18.2245L16.5274 17.5129L16.892 17.649L17.4328 19.114L17.2687 19.5117L15.8165 20.2285Z" fill="#2F6472"/>
<path opacity="0.7" d="M15.0752 18.2245L15.1542 18.1827L15.8955 20.1866L15.8165 20.2285L15.0752 18.2245ZM17.2687 19.5117L16.5335 17.5129L16.4545 17.5496L17.1958 19.5535L17.2748 19.5169L17.2687 19.5117Z" fill="#8DBFC6"/>
<path d="M15.0147 18.0567L14.6502 17.9155L14.1094 16.4504L14.2734 16.0528L15.7257 15.3359L16.0903 15.4772L16.6311 16.9423L16.467 17.3399L15.0147 18.0567Z" fill="#2F6472"/>
<path opacity="0.7" d="M14.2734 16.0528L14.3524 16.0109L15.0937 18.0149L15.0147 18.0567L14.2734 16.0528ZM16.467 17.3347L15.7318 15.3359L15.6528 15.3726L16.3941 17.3765L16.4731 17.3399L16.467 17.3347Z" fill="#8DBFC6"/>
<path d="M14.212 15.8799L13.8474 15.7438L13.3066 14.2788L13.4707 13.8759L14.9229 13.1643L15.2875 13.3056L15.8283 14.7654L15.6643 15.1683L14.212 15.8799Z" fill="#2F6472"/>
<path opacity="0.7" d="M13.4717 13.8759L13.5507 13.834L14.292 15.838L14.213 15.8799L13.4717 13.8759ZM15.6652 15.163L14.93 13.1643L14.851 13.2009L15.5923 15.2049L15.6713 15.1683L15.6652 15.163Z" fill="#8DBFC6"/>
<path d="M13.4103 13.7085L13.0457 13.5672L12.5049 12.1074L12.6689 11.7045L14.1212 10.9929L14.4858 11.129L15.0266 12.594L14.8625 12.9969L13.4103 13.7085Z" fill="#2F6472"/>
<path opacity="0.7" d="M12.6694 11.7045L12.7484 11.6627L13.4897 13.6666L13.4107 13.7085L12.6694 11.7045ZM14.863 12.9917L14.1278 10.9929L14.0488 11.0295L14.7901 13.0335L14.8691 12.9969L14.863 12.9917Z" fill="#8DBFC6"/>
<path d="M17.9918 19.1555L17.6272 19.0142L17.0864 17.5544L17.2566 17.1515L18.7027 16.4399L19.0734 16.576L19.6081 18.041L19.444 18.4387L17.9918 19.1555Z" fill="#2F6472"/>
<path opacity="0.7" d="M17.2568 17.1515L17.3358 17.1097L18.0771 19.1136L17.9981 19.1555L17.2568 17.1515ZM19.4443 18.4387L18.7091 16.4399L18.6301 16.4766L19.3714 18.4805L19.4504 18.4439L19.4443 18.4387Z" fill="#8DBFC6"/>
<path d="M17.1891 16.9842L16.8245 16.8429L16.2837 15.3779L16.4538 14.9803L17.9061 14.2634L18.2707 14.4047L18.8054 15.8697L18.6413 16.2674L17.1891 16.9842Z" fill="#2F6472"/>
<path opacity="0.7" d="M16.4541 14.9801L16.5331 14.9383L17.2744 16.9423L17.1954 16.9841L16.4541 14.9801ZM18.6416 16.2673L17.9063 14.2686L17.8274 14.3052L18.5687 16.3091L18.6477 16.2725L18.6416 16.2673Z" fill="#8DBFC6"/>
<path d="M16.3881 14.8074L16.0235 14.6713L15.4888 13.2063L15.6528 12.8086L17.1051 12.0918L17.4697 12.2331L18.0104 13.6929L17.8403 14.0958L16.3881 14.8074Z" fill="#2F6472"/>
<path opacity="0.7" d="M15.6523 12.8034L15.7313 12.7615L16.4726 14.7655L16.3937 14.8074L15.6523 12.8034ZM17.8398 14.0905L17.1046 12.0918L17.0256 12.1284L17.7669 14.1324L17.8459 14.0958L17.8398 14.0905Z" fill="#8DBFC6"/>
<path d="M15.5919 12.6357L15.2212 12.4945L14.6865 11.0346L14.8506 10.6318L16.3028 9.92017L16.6674 10.0562L17.2082 11.5212L17.0381 11.9241L15.5919 12.6357Z" fill="#2F6472"/>
<path opacity="0.7" d="M14.8506 10.6318L14.9296 10.5899L15.6709 12.5939L15.5919 12.6357L14.8506 10.6318ZM17.0381 11.9189L16.3028 9.92017L16.2238 9.95679L16.9651 11.9608L17.0441 11.9241L17.0381 11.9189Z" fill="#8DBFC6"/>
<defs>
<linearGradient id="paint0_linear_867_12818" x1="21.8567" y1="36.4062" x2="22.4582" y2="36.4062" gradientUnits="userSpaceOnUse">
<stop stop-color="#27262A"/>
<stop offset="0.6" stop-color="#2F2E33"/>
<stop offset="1" stop-color="#37373D"/>
</linearGradient>
<linearGradient id="paint1_linear_867_12818" x1="20.2764" y1="22.5302" x2="21.9838" y2="22.5302" gradientUnits="userSpaceOnUse">
<stop stop-color="#27262A"/>
<stop offset="0.6" stop-color="#2F2E33"/>
<stop offset="1" stop-color="#37373D"/>
</linearGradient>
<linearGradient id="paint2_linear_867_12818" x1="19.9009" y1="37.3793" x2="20.5085" y2="37.3793" gradientUnits="userSpaceOnUse">
<stop stop-color="#27262A"/>
<stop offset="0.6" stop-color="#2F2E33"/>
<stop offset="1" stop-color="#37373D"/>
</linearGradient>
</defs>
</svg>
